<?xml version="1.0" encoding="UTF-8" standalone="no"?>
<!DOCTYPE svg PUBLIC "-//W3C//DTD SVG 1.1//EN" "http://www.w3.org/Graphics/SVG/1.1/DTD/svg11.dtd">
<svg xmlns="http://www.w3.org/2000/svg" version="1.1" viewBox="0.00 0.00 861.00 568.00">
<g stroke-width="2.00" fill="none" stroke-linecap="butt">
<path stroke="#8a8b92" vector-effect="non-scaling-stroke" d="
  M 155.98 294.88
  Q 156.49 296.21 157.56 297.07
  Q 160.92 299.78 163.76 303.18
  Q 165.26 304.96 167.34 305.72
  Q 169.42 306.49 171.41 307.66
  Q 174.29 309.36 177.58 310.71
  C 189.15 315.44 202.13 315.49 213.76 310.44
  Q 216.91 309.07 219.73 307.78
  Q 224.80 305.46 228.64 301.63
  A 0.61 0.60 -43.1 0 1 229.52 301.65
  Q 231.08 303.42 232.69 305.02
  Q 233.93 306.25 235.48 307.21
  Q 237.68 308.57 239.14 310.95
  Q 239.91 312.22 241.09 313.38
  Q 253.14 325.26 264.60 337.03
  C 266.28 338.75 268.70 340.32 270.43 342.25
  Q 272.46 344.52 274.37 346.48
  Q 281.64 353.98 289.86 362.04
  Q 291.45 363.60 293.47 362.68
  Q 294.08 362.40 294.39 361.96
  Q 296.15 359.53 294.03 357.40
  L 234.41 297.75
  Q 233.94 297.29 234.13 296.66
  Q 234.29 296.11 234.74 295.67
  Q 235.36 295.07 235.77 294.26
  Q 236.71 292.44 237.93 290.70
  C 239.49 288.48 240.64 286.32 241.92 283.99
  Q 242.73 282.52 243.19 280.79
  Q 244.73 274.98 245.49 270.44
  Q 247.36 259.21 244.21 247.86
  Q 242.96 243.35 240.15 238.65
  Q 237.29 233.87 234.44 230.29
  Q 229.94 224.64 222.08 219.45
  C 218.71 217.22 214.65 215.93 210.82 214.54
  C 202.04 211.35 192.09 211.02 183.26 213.49
  Q 175.77 215.58 170.41 218.49
  Q 163.36 222.30 156.30 230.03
  Q 155.68 230.71 155.39 231.63
  Q 155.15 232.39 154.67 233.11
  Q 154.40 233.52 153.97 233.75
  Q 153.19 234.16 152.71 234.91
  C 150.73 238.01 147.58 242.61 147.30 246.14
  Q 147.16 247.80 146.59 249.53
  Q 145.76 251.99 145.34 254.48
  Q 143.59 264.90 146.14 275.20
  Q 146.30 275.82 146.56 276.39
  Q 147.17 277.71 147.22 279.60
  Q 147.30 282.41 149.56 285.34
  Q 149.86 285.73 149.94 286.21
  Q 150.32 288.57 152.28 289.82
  A 0.72 0.63 2.5 0 1 152.49 290.02
  L 155.92 294.76
  A 0.37 0.27 -80.8 0 1 155.98 294.88"
/>
<path stroke="#8a8b92" vector-effect="non-scaling-stroke" d="
  M 565.98 267.79
  L 565.95 241.18
  A 0.53 0.52 0.6 0 0 565.43 240.66
  L 552.92 240.65
  A 0.44 0.43 0.0 0 0 552.48 241.08
  L 552.45 309.72
  Q 552.45 310.49 553.22 310.49
  L 565.29 310.50
  Q 566.00 310.50 566.00 309.80
  Q 565.85 294.09 566.08 281.09
  Q 566.12 278.70 567.60 276.68
  Q 568.48 275.47 569.74 275.01
  Q 574.67 273.23 580.16 273.87
  C 583.64 274.27 585.07 279.65 584.81 282.40
  Q 584.62 284.33 584.63 286.18
  Q 584.73 298.34 584.64 310.11
  A 0.37 0.37 0.0 0 0 585.01 310.49
  L 597.44 310.50
  Q 597.99 310.50 597.99 309.96
  Q 597.97 295.22 597.95 280.48
  C 597.94 274.56 595.57 266.94 589.54 264.54
  Q 578.76 260.25 568.71 266.22
  C 567.78 266.77 567.50 267.48 566.76 268.14
  Q 565.98 268.84 565.98 267.79"
/>
<path stroke="#8a8b92" vector-effect="non-scaling-stroke" d="
  M 626.99 249.09
  A 7.59 7.59 0.0 0 0 619.40 241.50
  A 7.59 7.59 0.0 0 0 611.81 249.09
  A 7.59 7.59 0.0 0 0 619.40 256.68
  A 7.59 7.59 0.0 0 0 626.99 249.09"
/>
<path stroke="#8a8b92" vector-effect="non-scaling-stroke" d="
  M 339.69 307.43
  Q 344.08 310.20 348.76 310.40
  Q 350.74 310.49 352.92 310.62
  Q 355.46 310.77 357.89 310.65
  Q 358.48 310.62 358.48 310.03
  L 358.47 301.26
  A 0.74 0.74 0.0 0 0 357.76 300.52
  L 351.78 300.29
  Q 351.21 300.26 350.77 299.91
  Q 348.64 298.18 348.64 294.75
  Q 348.63 284.05 348.62 274.40
  Q 348.62 273.82 349.20 273.83
  L 358.21 273.85
  Q 358.47 273.85 358.47 273.58
  L 358.48 264.05
  Q 358.48 263.80 358.23 263.80
  L 349.01 263.79
  A 0.40 0.40 0.0 0 1 348.62 263.39
  L 348.68 249.45
  A 0.74 0.73 -89.6 0 0 347.95 248.70
  L 337.29 248.66
  Q 336.71 248.66 336.71 249.25
  C 336.73 252.75 337.45 259.10 334.81 261.74
  C 332.68 263.88 329.95 263.80 326.82 263.77
  Q 326.23 263.76 326.24 264.35
  L 326.32 273.48
  Q 326.32 273.88 326.73 273.88
  L 334.76 273.76
  Q 335.49 273.75 335.49 274.48
  Q 335.48 284.60 335.51 295.46
  Q 335.52 300.75 337.46 305.05
  Q 338.06 306.41 339.69 307.43"
/>
<path stroke="#8a8b92" vector-effect="non-scaling-stroke" d="
  M 705.45 274.48
  Q 705.39 285.03 705.48 296.81
  C 705.52 303.22 708.79 309.12 715.75 310.09
  Q 721.37 310.87 727.29 310.55
  Q 728.21 310.49 728.21 309.58
  L 728.24 301.47
  Q 728.24 300.32 727.10 300.42
  C 721.82 300.90 718.48 300.41 718.51 294.11
  Q 718.55 284.26 718.50 274.31
  A 0.52 0.51 0.0 0 1 719.03 273.79
  L 727.92 273.90
  Q 728.24 273.91 728.24 273.58
  L 728.23 264.02
  Q 728.22 263.81 728.02 263.81
  L 719.02 263.76
  A 0.49 0.49 0.0 0 1 718.53 263.27
  L 718.53 249.24
  Q 718.53 248.70 717.99 248.70
  L 707.54 248.71
  Q 706.96 248.71 706.97 249.28
  Q 707.00 252.73 706.89 256.22
  C 706.72 261.89 702.50 264.49 697.17 263.72
  Q 696.02 263.55 696.02 264.72
  L 696.03 273.06
  Q 696.03 273.84 696.81 273.84
  L 704.81 273.83
  Q 705.46 273.83 705.45 274.48"
/>
<path stroke="#8a8b92" vector-effect="non-scaling-stroke" d="
  M 402.73 308.96
  Q 405.15 307.89 407.40 306.77
  Q 408.89 306.03 409.61 304.67
  Q 411.25 301.59 413.55 298.53
  Q 414.81 296.84 412.74 296.50
  L 403.08 294.93
  Q 402.22 294.79 401.94 295.62
  Q 401.87 295.81 401.88 296.01
  Q 401.91 296.40 401.68 296.73
  Q 400.36 298.59 398.27 300.04
  Q 396.81 301.05 395.02 300.95
  Q 391.40 300.75 388.31 301.14
  A 1.84 1.74 -33.1 0 1 387.25 300.95
  Q 380.85 297.51 379.90 290.43
  A 0.53 0.53 0.0 0 1 380.43 289.83
  L 414.23 289.91
  Q 414.91 289.91 414.95 289.23
  Q 415.26 283.49 413.86 278.66
  Q 412.92 275.41 410.49 271.00
  Q 409.22 268.69 406.91 267.22
  Q 400.67 263.27 394.65 262.79
  Q 383.77 261.92 375.66 267.72
  Q 370.71 271.25 368.84 277.11
  Q 364.43 290.89 371.86 303.13
  Q 372.33 303.90 374.05 305.46
  Q 375.27 306.56 376.65 307.12
  C 378.27 307.78 379.70 308.80 381.34 309.45
  Q 391.58 313.52 402.01 309.72
  Q 402.23 309.64 402.32 309.41
  Q 402.43 309.10 402.73 308.96"
/>
<path stroke="#8a8b92" vector-effect="non-scaling-stroke" d="
  M 509.47 266.93
  C 508.70 267.76 507.58 268.05 507.06 269.03
  Q 506.66 269.80 506.10 269.14
  Q 499.05 260.72 487.53 263.35
  Q 483.66 264.24 478.76 268.31
  Q 478.20 268.78 478.21 268.04
  L 478.28 264.43
  Q 478.29 263.81 477.68 263.81
  L 465.75 263.77
  A 0.48 0.48 0.0 0 0 465.27 264.25
  L 465.27 310.01
  Q 465.27 310.50 465.76 310.50
  L 477.70 310.49
  Q 478.27 310.49 478.27 309.91
  Q 478.20 296.19 478.32 282.89
  Q 478.35 279.36 480.22 276.71
  Q 481.79 274.47 484.88 273.91
  Q 487.45 273.44 490.10 273.66
  Q 492.26 273.84 493.73 276.12
  Q 494.56 277.41 494.57 278.84
  Q 494.71 295.58 494.62 310.10
  Q 494.62 310.49 495.01 310.49
  L 507.70 310.50
  Q 508.25 310.50 508.24 309.96
  Q 508.23 296.93 508.24 284.25
  Q 508.24 281.25 509.03 278.16
  Q 509.58 276.00 511.77 274.86
  Q 516.87 272.17 521.47 274.99
  C 523.59 276.28 524.45 278.55 524.47 280.97
  Q 524.53 295.56 524.48 310.04
  Q 524.48 310.59 525.04 310.59
  L 536.73 310.57
  Q 537.33 310.57 537.33 309.97
  Q 537.32 293.47 537.35 278.30
  Q 537.36 274.16 535.92 270.35
  Q 534.80 267.40 531.77 265.66
  Q 522.99 260.62 513.47 264.27
  Q 511.12 265.16 509.47 266.93"
/>
<path stroke="#8a8b92" vector-effect="non-scaling-stroke" d="
  M 670.68 274.34
  C 673.53 276.39 674.17 278.74 674.17 282.18
  Q 674.18 296.43 674.15 309.96
  Q 674.15 310.58 674.77 310.58
  L 686.45 310.62
  Q 687.00 310.62 687.01 310.07
  Q 687.29 284.00 686.91 277.10
  C 686.68 272.85 684.53 267.53 680.36 265.38
  Q 671.33 260.70 661.83 264.28
  C 659.62 265.12 657.56 266.67 655.69 268.13
  Q 655.06 268.62 655.07 267.82
  L 655.07 264.44
  Q 655.07 263.80 654.44 263.80
  L 642.57 263.78
  A 0.69 0.68 -90.0 0 0 641.89 264.47
  L 642.02 310.31
  A 0.25 0.25 0.0 0 0 642.27 310.56
  L 654.71 310.62
  Q 655.05 310.62 655.05 310.28
  Q 655.04 296.29 655.28 283.25
  Q 655.38 277.42 659.76 274.26
  Q 662.35 272.39 666.66 273.32
  Q 667.70 273.54 668.75 273.62
  Q 669.77 273.69 670.68 274.34"
/>
<path stroke="#8a8b92" vector-effect="non-scaling-stroke" d="
  M 445.17 276.21
  Q 448.05 274.84 451.86 274.35
  Q 452.74 274.24 453.53 274.55
  A 1.18 1.18 0.0 0 0 455.15 273.46
  L 455.16 263.51
  A 0.46 0.45 -3.4 0 0 454.65 263.06
  C 451.96 263.38 447.25 264.32 445.19 266.39
  Q 444.05 267.55 442.51 268.28
  C 441.65 268.69 441.19 269.31 440.54 269.96
  Q 439.98 270.52 439.98 269.72
  L 440.00 264.67
  Q 440.00 263.85 439.17 263.84
  L 428.20 263.78
  Q 427.42 263.77 427.42 264.55
  L 427.49 309.88
  Q 427.49 310.52 428.13 310.52
  L 440.04 310.50
  Q 440.63 310.49 440.63 309.90
  Q 440.68 299.17 440.58 288.72
  Q 440.53 282.86 442.49 278.98
  C 442.95 278.07 444.25 276.65 445.17 276.21"
/>
<path stroke="#8a8b92" vector-effect="non-scaling-stroke" d="
  M 626.05 264.19
  A 0.40 0.40 0.0 0 0 625.65 263.79
  L 613.09 263.79
  A 0.40 0.40 0.0 0 0 612.69 264.19
  L 612.69 310.19
  A 0.40 0.40 0.0 0 0 613.09 310.59
  L 625.65 310.59
  A 0.40 0.40 0.0 0 0 626.05 310.19
  L 626.05 264.19"
/>
<path stroke="#8a8b92" vector-effect="non-scaling-stroke" d="
  M 326.93 329.94
  L 327.00 334.37
  Q 327.01 334.97 327.62 334.99
  L 328.49 335.01
  Q 329.00 335.02 329.01 334.51
  L 329.06 329.99
  A 1.18 1.16 72.6 0 1 329.53 329.07
  Q 330.20 328.58 330.18 327.79
  Q 330.16 327.00 329.37 327.00
  L 326.68 327.01
  A 0.78 0.76 8.7 0 0 325.94 327.54
  Q 325.66 328.40 326.43 328.97
  A 1.23 1.23 0.0 0 1 326.93 329.94"
/>
<path stroke="#8a8b92" vector-effect="non-scaling-stroke" d="
  M 626.16 333.26
  Q 625.03 331.45 625.96 329.66
  Q 626.24 329.13 626.83 329.04
  L 627.82 328.88
  Q 628.69 328.73 628.36 327.92
  L 628.25 327.64
  Q 627.94 326.85 627.14 327.15
  Q 623.31 328.60 624.26 332.51
  Q 624.90 335.18 627.78 335.12
  A 0.64 0.64 0.0 0 0 628.40 334.48
  L 628.39 332.10
  Q 628.39 331.22 627.54 331.43
  L 627.02 331.56
  Q 626.33 331.73 626.65 332.37
  Q 626.84 332.74 626.76 333.15
  Q 626.60 333.98 626.16 333.26"
/>
<path stroke="#8a8b92" vector-effect="non-scaling-stroke" d="
  M 337.02 330.45
  L 337.17 327.97
  A 0.55 0.55 0.0 0 0 336.68 327.39
  L 336.31 327.35
  Q 335.77 327.30 335.77 327.84
  L 335.79 334.53
  Q 335.79 335.02 336.28 334.97
  L 336.79 334.92
  Q 337.21 334.88 337.16 334.46
  L 336.97 333.00
  A 0.72 0.72 0.0 0 1 337.48 332.23
  Q 337.79 332.13 338.11 332.25
  Q 338.69 332.46 338.70 333.08
  L 338.73 334.75
  Q 338.73 335.14 339.13 335.13
  L 339.56 335.11
  Q 340.16 335.09 340.16 334.49
  L 340.13 327.99
  Q 340.12 327.29 339.43 327.26
  L 339.09 327.24
  Q 338.77 327.23 338.75 327.55
  L 338.59 330.22
  A 0.77 0.77 0.0 0 1 337.78 330.95
  L 337.46 330.94
  Q 336.99 330.91 337.02 330.45"
/>
<path stroke="#8a8b92" vector-effect="non-scaling-stroke" d="
  M 347.71 331.94
  L 348.80 331.73
  Q 349.36 331.62 349.19 331.08
  Q 348.93 330.25 347.90 330.40
  Q 347.14 330.51 347.11 329.74
  Q 347.10 329.57 347.20 329.42
  Q 347.42 329.12 347.80 329.05
  Q 348.28 328.98 348.77 328.89
  A 0.75 0.75 0.0 0 0 349.38 328.23
  Q 349.48 327.27 348.52 327.25
  Q 347.51 327.23 346.49 327.27
  A 0.70 0.70 0.0 0 0 345.81 327.97
  L 345.75 334.35
  Q 345.75 334.96 346.35 334.97
  L 348.74 335.04
  Q 349.29 335.06 349.29 334.51
  L 349.28 334.04
  Q 349.28 333.54 348.79 333.52
  L 347.78 333.49
  Q 347.29 333.47 347.16 333.00
  Q 347.09 332.79 347.12 332.58
  A 0.73 0.72 -2.7 0 1 347.71 331.94"
/>
<path stroke="#8a8b92" vector-effect="non-scaling-stroke" d="
  M 367.67 330.28
  Q 367.33 329.27 367.30 328.15
  Q 367.28 327.36 366.49 327.31
  L 366.23 327.29
  A 0.62 0.62 0.0 0 0 365.59 327.77
  L 364.93 330.64
  A 0.28 0.27 46.9 0 1 364.39 330.62
  L 363.98 328.09
  A 0.93 0.92 2.0 0 0 363.27 327.34
  L 363.01 327.28
  Q 362.35 327.13 362.42 327.81
  Q 362.83 331.64 364.07 334.70
  Q 364.30 335.26 364.90 335.17
  Q 365.58 335.06 365.63 334.38
  Q 365.69 333.45 366.23 332.77
  Q 366.81 332.04 366.83 332.97
  Q 366.85 334.09 367.37 334.90
  A 0.67 0.67 0.0 0 0 368.59 334.70
  L 370.27 328.03
  A 0.53 0.52 12.6 0 0 369.86 327.39
  L 369.55 327.32
  A 0.68 0.67 -82.7 0 0 368.74 327.95
  Q 368.68 329.25 368.23 330.30
  Q 367.92 331.04 367.67 330.28"
/>
<path stroke="#8a8b92" vector-effect="non-scaling-stroke" d="
  M 389.08 333.39
  Q 389.60 333.44 389.70 333.97
  Q 389.94 335.24 390.97 335.12
  Q 392.50 334.93 391.38 333.87
  Q 389.91 332.49 391.04 331.16
  Q 391.48 330.64 391.49 329.95
  Q 391.49 327.13 388.23 327.25
  Q 387.33 327.29 387.30 328.18
  L 387.08 334.25
  Q 387.07 334.60 387.32 334.84
  Q 387.72 335.22 388.29 335.05
  Q 388.71 334.93 388.70 334.50
  L 388.69 333.76
  A 0.36 0.36 0.0 0 1 389.08 333.39"
/>
<path stroke="#8a8b92" vector-effect="non-scaling-stroke" d="
  M 397.33 328.01
  L 397.31 334.31
  A 0.80 0.80 0.0 0 0 398.11 335.11
  L 398.95 335.12
  A 3.47 3.40 -89.8 0 0 402.36 331.66
  L 402.36 330.70
  A 3.47 3.40 -89.8 0 0 398.97 327.22
  L 398.13 327.21
  A 0.80 0.80 0.0 0 0 397.33 328.01"
/>
<path stroke="#8a8b92" vector-effect="non-scaling-stroke" d="
  M 429.16 330.61
  L 428.28 327.95
  Q 428.15 327.56 427.77 327.41
  Q 427.53 327.32 427.29 327.35
  A 0.62 0.61 -3.7 0 0 426.75 327.96
  L 426.81 334.47
  Q 426.82 335.01 427.35 334.94
  L 427.69 334.90
  A 0.52 0.52 0.0 0 0 428.15 334.32
  Q 428.06 333.52 428.23 332.83
  Q 428.44 331.95 428.80 332.78
  Q 429.23 333.76 429.71 334.64
  Q 429.85 334.92 430.14 335.07
  Q 430.50 335.26 430.85 335.11
  Q 431.21 334.96 431.22 334.56
  Q 431.26 330.85 431.18 327.81
  Q 431.17 327.33 430.69 327.31
  L 430.29 327.29
  Q 429.75 327.26 429.78 327.80
  Q 429.84 329.23 429.63 330.57
  Q 429.47 331.56 429.16 330.61"
/>
<path stroke="#8a8b92" vector-effect="non-scaling-stroke" d="
  M 447.61 328.85
  Q 448.02 328.82 448.24 328.51
  Q 448.82 327.67 447.83 327.41
  Q 445.92 326.92 444.42 327.62
  Q 443.58 328.01 444.37 328.49
  L 445.05 328.91
  A 0.98 0.96 -74.7 0 1 445.51 329.74
  L 445.46 334.69
  Q 445.45 335.18 445.94 335.14
  L 446.22 335.11
  Q 446.97 335.05 446.97 334.29
  L 446.95 329.57
  A 0.73 0.72 -2.6 0 1 447.61 328.85"
/>
<path stroke="#8a8b92" vector-effect="non-scaling-stroke" d="
  M 455.37 330.23
  L 455.41 327.95
  Q 455.42 327.39 454.86 327.36
  L 454.45 327.34
  A 0.47 0.47 0.0 0 0 453.96 327.80
  L 453.79 334.27
  A 0.75 0.74 -86.8 0 0 454.47 335.04
  L 454.81 335.07
  Q 455.43 335.12 455.41 334.51
  L 455.36 332.93
  Q 455.34 332.20 456.06 332.20
  L 456.46 332.20
  Q 457.22 332.20 457.22 332.96
  L 457.23 334.68
  A 0.48 0.48 0.0 0 0 457.75 335.16
  L 458.07 335.14
  Q 458.68 335.09 458.70 334.48
  Q 458.79 331.48 458.66 328.59
  Q 458.54 325.92 457.10 328.16
  Q 456.82 328.59 457.15 329.89
  A 0.79 0.78 76.6 0 1 456.56 330.86
  L 456.22 330.94
  Q 455.35 331.13 455.37 330.23"
/>
<path stroke="#8a8b92" vector-effect="non-scaling-stroke" d="
  M 465.78 329.91
  Q 465.71 329.75 465.74 329.58
  Q 465.83 329.10 466.30 328.97
  L 467.20 328.73
  Q 469.12 328.23 467.30 327.45
  Q 466.11 326.95 464.75 327.35
  A 0.68 0.68 0.0 0 0 464.26 328.00
  L 464.24 334.44
  Q 464.24 335.00 464.80 335.08
  Q 466.11 335.25 467.30 334.83
  Q 468.13 334.54 467.61 333.84
  Q 467.28 333.39 466.86 333.49
  Q 466.17 333.66 465.87 333.02
  Q 465.74 332.75 465.81 332.45
  Q 465.93 331.92 466.47 331.85
  Q 467.03 331.77 467.57 331.57
  Q 468.37 331.28 467.65 330.82
  Q 467.23 330.54 466.72 330.53
  Q 466.05 330.52 465.78 329.91"
/>
<path stroke="#8a8b92" vector-effect="non-scaling-stroke" d="
  M 482.12 329.72
  L 482.02 334.33
  Q 482.00 335.03 482.70 335.14
  L 483.05 335.20
  A 0.51 0.50 -85.6 0 0 483.63 334.70
  L 483.60 329.50
  Q 483.60 329.00 484.08 328.88
  Q 484.56 328.76 484.85 328.38
  Q 485.35 327.71 484.54 327.49
  Q 482.77 327.02 481.14 327.43
  A 0.63 0.62 -20.2 0 0 480.73 328.31
  Q 480.94 328.75 481.40 328.83
  A 0.88 0.87 -84.3 0 1 482.12 329.72"
/>
<path stroke="#8a8b92" vector-effect="non-scaling-stroke" d="
  M 492.1311 327.8538
  A 0.60 0.60 0.0 0 0 491.5259 327.2590
  L 491.2659 327.2613
  A 0.60 0.60 0.0 0 0 490.6711 327.8665
  L 490.7289 334.4862
  A 0.60 0.60 0.0 0 0 491.3341 335.0810
  L 491.5941 335.0787
  A 0.60 0.60 0.0 0 0 492.1889 334.4735
  L 492.1311 327.8538"
/>
<path stroke="#8a8b92" vector-effect="non-scaling-stroke" d="
  M 499.66 332.68
  L 500.70 332.36
  Q 501.33 332.17 501.46 331.52
  C 501.98 328.99 501.33 327.14 498.37 327.30
  Q 497.76 327.33 497.76 327.94
  L 497.76 334.71
  Q 497.76 335.18 498.22 335.14
  L 498.48 335.11
  Q 499.01 335.07 499.05 334.54
  L 499.13 333.35
  Q 499.16 332.83 499.66 332.68"
/>
<path stroke="#8a8b92" vector-effect="non-scaling-stroke" d="
  M 528.00 330.35
  Q 526.59 329.61 528.09 329.10
  L 529.09 328.76
  Q 529.64 328.57 529.43 328.02
  Q 528.99 326.89 527.42 327.13
  Q 526.14 327.33 526.14 328.63
  L 526.15 334.28
  Q 526.15 334.81 526.67 334.85
  Q 527.05 334.88 527.36 334.65
  Q 527.80 334.33 527.57 333.83
  Q 527.27 333.22 527.38 332.52
  A 0.58 0.57 -2.4 0 1 527.82 332.05
  L 528.74 331.84
  Q 529.26 331.72 529.28 331.17
  Q 529.29 330.64 528.76 330.58
  Q 528.35 330.53 528.00 330.35"
/>
<path stroke="#8a8b92" vector-effect="non-scaling-stroke" d="
  M 545.34 329.23
  Q 544.65 330.12 544.46 329.01
  Q 544.19 327.49 543.28 327.29
  A 0.57 0.57 0.0 0 0 542.66 328.10
  Q 544.35 331.48 544.19 334.58
  A 0.48 0.47 -86.9 0 0 544.63 335.08
  L 544.92 335.10
  Q 545.71 335.16 545.75 334.36
  Q 545.94 330.48 547.58 327.88
  A 0.35 0.34 21.5 0 0 547.35 327.36
  L 546.80 327.25
  A 0.50 0.49 -74.6 0 0 546.22 327.58
  Q 545.88 328.53 545.34 329.23"
/>
<path stroke="#8a8b92" vector-effect="non-scaling-stroke" d="
  M 556.2438 335.2600
  A 3.95 3.18 89.8 0 0 559.4100 331.2989
  A 3.95 3.18 89.8 0 0 556.2162 327.3600
  A 3.95 3.18 89.8 0 0 553.0500 331.3211
  A 3.95 3.18 89.8 0 0 556.2438 335.2600"
/>
<path stroke="#8a8b92" vector-effect="non-scaling-stroke" d="
  M 567.05 333.34
  Q 566.45 332.71 566.47 331.76
  Q 566.50 329.73 566.58 327.99
  Q 566.60 327.36 565.98 327.33
  L 565.44 327.29
  A 0.52 0.52 0.0 0 0 564.89 327.81
  L 564.88 333.24
  A 1.91 1.91 0.0 0 0 567.12 335.13
  L 567.62 335.04
  A 1.99 1.98 85.9 0 0 569.26 333.14
  L 569.41 327.99
  Q 569.43 327.30 568.74 327.33
  L 568.47 327.34
  A 0.52 0.52 0.0 0 0 567.97 327.86
  L 567.99 332.97
  A 0.55 0.54 23.1 0 1 567.05 333.34"
/>
<path stroke="#8a8b92" vector-effect="non-scaling-stroke" d="
  M 577.55 334.62
  Q 577.97 335.09 578.55 334.99
  Q 579.72 334.77 578.83 333.97
  Q 577.48 332.75 578.36 331.36
  Q 580.08 328.66 577.20 327.31
  A 1.50 1.49 12.2 0 0 575.07 328.68
  L 575.12 334.45
  Q 575.12 334.92 575.59 334.95
  Q 576.17 334.98 576.60 334.57
  A 0.66 0.66 0.0 0 1 577.55 334.62"
/>
<path stroke="#8a8b92" vector-effect="non-scaling-stroke" d="
  M 595.65 328.89
  Q 596.02 328.81 596.27 328.52
  A 0.77 0.77 0.0 0 0 595.67 327.24
  L 592.92 327.30
  A 0.63 0.63 0.0 0 0 592.54 328.42
  L 593.23 329.00
  Q 593.61 329.32 593.61 329.81
  L 593.57 334.47
  Q 593.57 334.99 594.09 334.99
  L 594.50 334.99
  Q 594.98 334.99 594.98 334.51
  L 594.99 329.71
  A 0.85 0.84 -6.5 0 1 595.65 328.89"
/>
<path stroke="#8a8b92" vector-effect="non-scaling-stroke" d="
  M 615.83 332.31
  Q 616.39 333.37 616.84 334.43
  Q 617.09 335.01 617.68 334.94
  Q 618.24 334.88 618.24 334.32
  L 618.21 327.79
  A 0.44 0.43 -1.3 0 0 617.75 327.36
  L 617.45 327.37
  Q 616.84 327.40 616.89 328.01
  Q 616.96 329.01 616.77 329.94
  Q 616.51 331.24 616.13 329.98
  Q 615.86 329.13 615.42 328.39
  Q 613.74 325.54 613.74 328.84
  L 613.74 334.67
  Q 613.74 335.18 614.24 335.15
  L 614.61 335.13
  A 0.62 0.62 0.0 0 0 615.20 334.51
  L 615.20 332.46
  Q 615.21 331.13 615.83 332.31"
/>
<path stroke="#8a8b92" vector-effect="non-scaling-stroke" d="
  M 635.74 333.17
  Q 635.40 330.53 635.89 327.96
  A 0.47 0.46 -80.8 0 0 635.51 327.42
  L 635.08 327.35
  Q 634.27 327.23 634.28 328.05
  L 634.37 333.35
  Q 634.38 333.92 634.77 334.34
  C 635.82 335.43 638.11 335.51 638.58 333.77
  C 639.08 331.96 638.98 329.81 638.93 327.98
  Q 638.91 327.24 638.17 327.30
  L 637.80 327.33
  Q 637.30 327.37 637.31 327.86
  Q 637.36 330.24 637.21 332.60
  Q 637.17 333.33 636.52 333.61
  Q 635.84 333.90 635.74 333.17"
/>
<path stroke="#8a8b92" vector-effect="non-scaling-stroke" d="
  M 646.69 328.92
  Q 647.39 329.02 647.92 328.60
  A 0.74 0.74 0.0 0 0 647.47 327.27
  L 645.01 327.25
  Q 644.52 327.25 644.51 327.74
  L 644.36 334.32
  Q 644.34 335.05 645.07 335.04
  L 647.42 335.02
  Q 647.99 335.01 648.02 334.44
  L 648.03 334.07
  Q 648.06 333.55 647.53 333.54
  L 646.54 333.53
  Q 646.06 333.53 645.96 333.06
  Q 645.90 332.75 645.95 332.45
  Q 646.06 331.75 646.77 331.78
  Q 647.26 331.81 647.74 331.67
  Q 648.07 331.57 648.02 331.22
  L 647.97 330.88
  Q 647.92 330.56 647.60 330.54
  L 646.33 330.47
  Q 645.94 330.45 645.90 330.06
  Q 645.88 329.85 645.88 329.63
  A 0.70 0.70 0.0 0 1 646.69 328.92"
/>
<path stroke="#8a8b92" vector-effect="non-scaling-stroke" d="
  M 378.9546 335.1288
  A 3.87 2.86 88.6 0 0 381.7191 331.1901
  A 3.87 2.86 88.6 0 0 378.7654 327.3912
  A 3.87 2.86 88.6 0 0 376.0009 331.3299
  A 3.87 2.86 88.6 0 0 378.9546 335.1288"
/>
<path stroke="#8a8b92" vector-effect="non-scaling-stroke" d="
  M 418.0652 335.1488
  A 3.88 2.87 91.4 0 0 421.0291 331.3401
  A 3.88 2.87 91.4 0 0 418.2548 327.3912
  A 3.88 2.87 91.4 0 0 415.2909 331.1999
  A 3.88 2.87 91.4 0 0 418.0652 335.1488"
/>
<path stroke="#8a8b92" vector-effect="non-scaling-stroke" d="
  M 517.4192 335.1395
  A 3.87 2.84 90.9 0 0 520.3196 331.3146
  A 3.87 2.84 90.9 0 0 517.5408 327.4005
  A 3.87 2.84 90.9 0 0 514.6404 331.2254
  A 3.87 2.84 90.9 0 0 517.4192 335.1395"
/>
<path stroke="#8a8b92" vector-effect="non-scaling-stroke" d="
  M 605.1380 335.2497
  A 3.93 3.15 89.3 0 0 608.2398 331.2815
  A 3.93 3.15 89.3 0 0 605.0420 327.3903
  A 3.93 3.15 89.3 0 0 601.9402 331.3585
  A 3.93 3.15 89.3 0 0 605.1380 335.2497"
/>
<path stroke="#8a8b92" vector-effect="non-scaling-stroke" d="
  M 161.95 292.23
  Q 163.38 295.19 165.93 297.10
  Q 172.01 301.66 178.93 304.76
  C 182.29 306.26 186.15 307.32 189.76 307.57
  Q 194.39 307.89 199.60 307.65
  C 207.58 307.28 214.19 304.05 221.01 299.76
  Q 222.50 298.82 223.76 297.68
  Q 225.20 296.37 226.83 295.21
  Q 228.66 293.92 230.32 291.32
  Q 232.17 288.43 234.21 285.50
  Q 236.63 282.02 237.47 279.23
  Q 240.15 270.34 239.90 261.62
  C 239.78 256.99 238.53 252.49 237.70 247.89
  C 237.32 245.84 236.45 243.81 235.23 242.12
  Q 233.60 239.83 232.10 237.52
  Q 230.27 234.69 228.69 233.05
  Q 224.28 228.45 219.07 224.73
  Q 218.98 224.66 218.86 224.63
  Q 218.65 224.58 218.41 224.60
  A 1.21 1.15 58.4 0 1 217.77 224.43
  C 205.83 217.23 190.97 215.89 177.91 221.86
  Q 173.09 224.07 171.26 225.13
  Q 166.62 227.83 162.13 233.07
  Q 158.36 237.46 154.84 243.17
  Q 153.77 244.90 153.34 246.99
  Q 152.64 250.34 151.90 253.25
  Q 149.23 263.73 152.29 274.51
  Q 152.31 274.61 153.16 278.58
  Q 153.72 281.25 155.31 283.79
  Q 158.41 288.75 161.14 291.63
  Q 161.28 291.78 161.48 291.83
  Q 161.81 291.92 161.95 292.23"
/>
<path stroke="#8a8b92" vector-effect="non-scaling-stroke" d="
  M 380.76 281.27
  L 401.96 280.97
  A 0.12 0.12 0.0 0 0 402.08 280.85
  L 402.08 280.83
  A 10.52 8.84 -0.8 0 0 391.44 272.14
  L 391.04 272.14
  A 10.52 8.84 -0.8 0 0 380.64 281.13
  L 380.64 281.15
  A 0.12 0.12 0.0 0 0 380.76 281.27"
/>
<path stroke="#8a8b92" vector-effect="non-scaling-stroke" d="
  M 388.95 329.27
  Q 388.33 329.93 388.78 330.72
  A 0.55 0.54 46.0 0 0 389.72 330.74
  Q 390.12 330.08 389.87 329.44
  A 0.56 0.56 0.0 0 0 388.95 329.27"
/>
<path stroke="#8a8b92" vector-effect="non-scaling-stroke" d="
  M 398.94 329.17
  L 399.00 333.53
  A 0.19 0.19 0.0 0 0 399.20 333.71
  L 399.30 333.71
  A 1.94 1.71 89.1 0 0 400.98 331.74
  L 400.96 330.88
  A 1.94 1.71 89.1 0 0 399.22 328.97
  L 399.12 328.97
  A 0.19 0.19 0.0 0 0 398.94 329.17"
/>
<path stroke="#8a8b92" vector-effect="non-scaling-stroke" d="
  M 500.06 331.01
  Q 500.91 329.75 499.78 329.10
  Q 499.18 328.76 499.05 329.44
  Q 498.91 330.19 499.13 330.88
  Q 499.46 331.93 500.06 331.01"
/>
<path stroke="#8a8b92" vector-effect="non-scaling-stroke" d="
  M 556.3045 333.8400
  A 2.58 1.73 89.9 0 0 558.0300 331.2570
  A 2.58 1.73 89.9 0 0 556.2955 328.6800
  A 2.58 1.73 89.9 0 0 554.5700 331.2630
  A 2.58 1.73 89.9 0 0 556.3045 333.8400"
/>
<path stroke="#8a8b92" vector-effect="non-scaling-stroke" d="
  M 576.26 329.73
  A 0.65 0.64 -67.6 0 0 576.66 330.71
  Q 577.24 330.84 577.62 330.47
  A 0.63 0.62 -51.1 0 0 577.52 329.49
  Q 576.73 329.00 576.26 329.73"
/>
<path stroke="#8a8b92" vector-effect="non-scaling-stroke" d="
  M 378.8082 333.7695
  A 2.51 1.43 88.9 0 0 380.1897 331.2325
  A 2.51 1.43 88.9 0 0 378.7118 328.7505
  A 2.51 1.43 88.9 0 0 377.3303 331.2875
  A 2.51 1.43 88.9 0 0 378.8082 333.7695"
/>
<path stroke="#8a8b92" vector-effect="non-scaling-stroke" d="
  M 418.2734 333.7800
  A 2.55 1.45 89.7 0 0 419.7100 331.2224
  A 2.55 1.45 89.7 0 0 418.2466 328.6800
  A 2.55 1.45 89.7 0 0 416.8100 331.2376
  A 2.55 1.45 89.7 0 0 418.2734 333.7800"
/>
<path stroke="#8a8b92" vector-effect="non-scaling-stroke" d="
  M 517.5850 333.8196
  A 2.58 1.44 89.0 0 0 518.9798 331.2149
  A 2.58 1.44 89.0 0 0 517.4950 328.6604
  A 2.58 1.44 89.0 0 0 516.1002 331.2651
  A 2.58 1.44 89.0 0 0 517.5850 333.8196"
/>
<path stroke="#8a8b92" vector-effect="non-scaling-stroke" d="
  M 605.0003 333.8795
  A 2.59 1.79 91.1 0 0 606.8397 331.3244
  A 2.59 1.79 91.1 0 0 605.0997 328.7005
  A 2.59 1.79 91.1 0 0 603.2603 331.2556
  A 2.59 1.79 91.1 0 0 605.0003 333.8795"
/>
</g>
<path fill="#f0f0f0" d="
  M 0.00 0.00
  L 861.00 0.00
  L 861.00 568.00
  L 0.00 568.00
  L 0.00 0.00
  Z
  M 155.98 294.88
  Q 156.49 296.21 157.56 297.07
  Q 160.92 299.78 163.76 303.18
  Q 165.26 304.96 167.34 305.72
  Q 169.42 306.49 171.41 307.66
  Q 174.29 309.36 177.58 310.71
  C 189.15 315.44 202.13 315.49 213.76 310.44
  Q 216.91 309.07 219.73 307.78
  Q 224.80 305.46 228.64 301.63
  A 0.61 0.60 -43.1 0 1 229.52 301.65
  Q 231.08 303.42 232.69 305.02
  Q 233.93 306.25 235.48 307.21
  Q 237.68 308.57 239.14 310.95
  Q 239.91 312.22 241.09 313.38
  Q 253.14 325.26 264.60 337.03
  C 266.28 338.75 268.70 340.32 270.43 342.25
  Q 272.46 344.52 274.37 346.48
  Q 281.64 353.98 289.86 362.04
  Q 291.45 363.60 293.47 362.68
  Q 294.08 362.40 294.39 361.96
  Q 296.15 359.53 294.03 357.40
  L 234.41 297.75
  Q 233.94 297.29 234.13 296.66
  Q 234.29 296.11 234.74 295.67
  Q 235.36 295.07 235.77 294.26
  Q 236.71 292.44 237.93 290.70
  C 239.49 288.48 240.64 286.32 241.92 283.99
  Q 242.73 282.52 243.19 280.79
  Q 244.73 274.98 245.49 270.44
  Q 247.36 259.21 244.21 247.86
  Q 242.96 243.35 240.15 238.65
  Q 237.29 233.87 234.44 230.29
  Q 229.94 224.64 222.08 219.45
  C 218.71 217.22 214.65 215.93 210.82 214.54
  C 202.04 211.35 192.09 211.02 183.26 213.49
  Q 175.77 215.58 170.41 218.49
  Q 163.36 222.30 156.30 230.03
  Q 155.68 230.71 155.39 231.63
  Q 155.15 232.39 154.67 233.11
  Q 154.40 233.52 153.97 233.75
  Q 153.19 234.16 152.71 234.91
  C 150.73 238.01 147.58 242.61 147.30 246.14
  Q 147.16 247.80 146.59 249.53
  Q 145.76 251.99 145.34 254.48
  Q 143.59 264.90 146.14 275.20
  Q 146.30 275.82 146.56 276.39
  Q 147.17 277.71 147.22 279.60
  Q 147.30 282.41 149.56 285.34
  Q 149.86 285.73 149.94 286.21
  Q 150.32 288.57 152.28 289.82
  A 0.72 0.63 2.5 0 1 152.49 290.02
  L 155.92 294.76
  A 0.37 0.27 -80.8 0 1 155.98 294.88
  Z
  M 565.98 267.79
  L 565.95 241.18
  A 0.53 0.52 0.6 0 0 565.43 240.66
  L 552.92 240.65
  A 0.44 0.43 0.0 0 0 552.48 241.08
  L 552.45 309.72
  Q 552.45 310.49 553.22 310.49
  L 565.29 310.50
  Q 566.00 310.50 566.00 309.80
  Q 565.85 294.09 566.08 281.09
  Q 566.12 278.70 567.60 276.68
  Q 568.48 275.47 569.74 275.01
  Q 574.67 273.23 580.16 273.87
  C 583.64 274.27 585.07 279.65 584.81 282.40
  Q 584.62 284.33 584.63 286.18
  Q 584.73 298.34 584.64 310.11
  A 0.37 0.37 0.0 0 0 585.01 310.49
  L 597.44 310.50
  Q 597.99 310.50 597.99 309.96
  Q 597.97 295.22 597.95 280.48
  C 597.94 274.56 595.57 266.94 589.54 264.54
  Q 578.76 260.25 568.71 266.22
  C 567.78 266.77 567.50 267.48 566.76 268.14
  Q 565.98 268.84 565.98 267.79
  Z
  M 626.99 249.09
  A 7.59 7.59 0.0 0 0 619.40 241.50
  A 7.59 7.59 0.0 0 0 611.81 249.09
  A 7.59 7.59 0.0 0 0 619.40 256.68
  A 7.59 7.59 0.0 0 0 626.99 249.09
  Z
  M 339.69 307.43
  Q 344.08 310.20 348.76 310.40
  Q 350.74 310.49 352.92 310.62
  Q 355.46 310.77 357.89 310.65
  Q 358.48 310.62 358.48 310.03
  L 358.47 301.26
  A 0.74 0.74 0.0 0 0 357.76 300.52
  L 351.78 300.29
  Q 351.21 300.26 350.77 299.91
  Q 348.64 298.18 348.64 294.75
  Q 348.63 284.05 348.62 274.40
  Q 348.62 273.82 349.20 273.83
  L 358.21 273.85
  Q 358.47 273.85 358.47 273.58
  L 358.48 264.05
  Q 358.48 263.80 358.23 263.80
  L 349.01 263.79
  A 0.40 0.40 0.0 0 1 348.62 263.39
  L 348.68 249.45
  A 0.74 0.73 -89.6 0 0 347.95 248.70
  L 337.29 248.66
  Q 336.71 248.66 336.71 249.25
  C 336.73 252.75 337.45 259.10 334.81 261.74
  C 332.68 263.88 329.95 263.80 326.82 263.77
  Q 326.23 263.76 326.24 264.35
  L 326.32 273.48
  Q 326.32 273.88 326.73 273.88
  L 334.76 273.76
  Q 335.49 273.75 335.49 274.48
  Q 335.48 284.60 335.51 295.46
  Q 335.52 300.75 337.46 305.05
  Q 338.06 306.41 339.69 307.43
  Z
  M 705.45 274.48
  Q 705.39 285.03 705.48 296.81
  C 705.52 303.22 708.79 309.12 715.75 310.09
  Q 721.37 310.87 727.29 310.55
  Q 728.21 310.49 728.21 309.58
  L 728.24 301.47
  Q 728.24 300.32 727.10 300.42
  C 721.82 300.90 718.48 300.41 718.51 294.11
  Q 718.55 284.26 718.50 274.31
  A 0.52 0.51 0.0 0 1 719.03 273.79
  L 727.92 273.90
  Q 728.24 273.91 728.24 273.58
  L 728.23 264.02
  Q 728.22 263.81 728.02 263.81
  L 719.02 263.76
  A 0.49 0.49 0.0 0 1 718.53 263.27
  L 718.53 249.24
  Q 718.53 248.70 717.99 248.70
  L 707.54 248.71
  Q 706.96 248.71 706.97 249.28
  Q 707.00 252.73 706.89 256.22
  C 706.72 261.89 702.50 264.49 697.17 263.72
  Q 696.02 263.55 696.02 264.72
  L 696.03 273.06
  Q 696.03 273.84 696.81 273.84
  L 704.81 273.83
  Q 705.46 273.83 705.45 274.48
  Z
  M 402.73 308.96
  Q 405.15 307.89 407.40 306.77
  Q 408.89 306.03 409.61 304.67
  Q 411.25 301.59 413.55 298.53
  Q 414.81 296.84 412.74 296.50
  L 403.08 294.93
  Q 402.22 294.79 401.94 295.62
  Q 401.87 295.81 401.88 296.01
  Q 401.91 296.40 401.68 296.73
  Q 400.36 298.59 398.27 300.04
  Q 396.81 301.05 395.02 300.95
  Q 391.40 300.75 388.31 301.14
  A 1.84 1.74 -33.1 0 1 387.25 300.95
  Q 380.85 297.51 379.90 290.43
  A 0.53 0.53 0.0 0 1 380.43 289.83
  L 414.23 289.91
  Q 414.91 289.91 414.95 289.23
  Q 415.26 283.49 413.86 278.66
  Q 412.92 275.41 410.49 271.00
  Q 409.22 268.69 406.91 267.22
  Q 400.67 263.27 394.65 262.79
  Q 383.77 261.92 375.66 267.72
  Q 370.71 271.25 368.84 277.11
  Q 364.43 290.89 371.86 303.13
  Q 372.33 303.90 374.05 305.46
  Q 375.27 306.56 376.65 307.12
  C 378.27 307.78 379.70 308.80 381.34 309.45
  Q 391.58 313.52 402.01 309.72
  Q 402.23 309.64 402.32 309.41
  Q 402.43 309.10 402.73 308.96
  Z
  M 509.47 266.93
  C 508.70 267.76 507.58 268.05 507.06 269.03
  Q 506.66 269.80 506.10 269.14
  Q 499.05 260.72 487.53 263.35
  Q 483.66 264.24 478.76 268.31
  Q 478.20 268.78 478.21 268.04
  L 478.28 264.43
  Q 478.29 263.81 477.68 263.81
  L 465.75 263.77
  A 0.48 0.48 0.0 0 0 465.27 264.25
  L 465.27 310.01
  Q 465.27 310.50 465.76 310.50
  L 477.70 310.49
  Q 478.27 310.49 478.27 309.91
  Q 478.20 296.19 478.32 282.89
  Q 478.35 279.36 480.22 276.71
  Q 481.79 274.47 484.88 273.91
  Q 487.45 273.44 490.10 273.66
  Q 492.26 273.84 493.73 276.12
  Q 494.56 277.41 494.57 278.84
  Q 494.71 295.58 494.62 310.10
  Q 494.62 310.49 495.01 310.49
  L 507.70 310.50
  Q 508.25 310.50 508.24 309.96
  Q 508.23 296.93 508.24 284.25
  Q 508.24 281.25 509.03 278.16
  Q 509.58 276.00 511.77 274.86
  Q 516.87 272.17 521.47 274.99
  C 523.59 276.28 524.45 278.55 524.47 280.97
  Q 524.53 295.56 524.48 310.04
  Q 524.48 310.59 525.04 310.59
  L 536.73 310.57
  Q 537.33 310.57 537.33 309.97
  Q 537.32 293.47 537.35 278.30
  Q 537.36 274.16 535.92 270.35
  Q 534.80 267.40 531.77 265.66
  Q 522.99 260.62 513.47 264.27
  Q 511.12 265.16 509.47 266.93
  Z
  M 670.68 274.34
  C 673.53 276.39 674.17 278.74 674.17 282.18
  Q 674.18 296.43 674.15 309.96
  Q 674.15 310.58 674.77 310.58
  L 686.45 310.62
  Q 687.00 310.62 687.01 310.07
  Q 687.29 284.00 686.91 277.10
  C 686.68 272.85 684.53 267.53 680.36 265.38
  Q 671.33 260.70 661.83 264.28
  C 659.62 265.12 657.56 266.67 655.69 268.13
  Q 655.06 268.62 655.07 267.82
  L 655.07 264.44
  Q 655.07 263.80 654.44 263.80
  L 642.57 263.78
  A 0.69 0.68 -90.0 0 0 641.89 264.47
  L 642.02 310.31
  A 0.25 0.25 0.0 0 0 642.27 310.56
  L 654.71 310.62
  Q 655.05 310.62 655.05 310.28
  Q 655.04 296.29 655.28 283.25
  Q 655.38 277.42 659.76 274.26
  Q 662.35 272.39 666.66 273.32
  Q 667.70 273.54 668.75 273.62
  Q 669.77 273.69 670.68 274.34
  Z
  M 445.17 276.21
  Q 448.05 274.84 451.86 274.35
  Q 452.74 274.24 453.53 274.55
  A 1.18 1.18 0.0 0 0 455.15 273.46
  L 455.16 263.51
  A 0.46 0.45 -3.4 0 0 454.65 263.06
  C 451.96 263.38 447.25 264.32 445.19 266.39
  Q 444.05 267.55 442.51 268.28
  C 441.65 268.69 441.19 269.31 440.54 269.96
  Q 439.98 270.52 439.98 269.72
  L 440.00 264.67
  Q 440.00 263.85 439.17 263.84
  L 428.20 263.78
  Q 427.42 263.77 427.42 264.55
  L 427.49 309.88
  Q 427.49 310.52 428.13 310.52
  L 440.04 310.50
  Q 440.63 310.49 440.63 309.90
  Q 440.68 299.17 440.58 288.72
  Q 440.53 282.86 442.49 278.98
  C 442.95 278.07 444.25 276.65 445.17 276.21
  Z
  M 626.05 264.19
  A 0.40 0.40 0.0 0 0 625.65 263.79
  L 613.09 263.79
  A 0.40 0.40 0.0 0 0 612.69 264.19
  L 612.69 310.19
  A 0.40 0.40 0.0 0 0 613.09 310.59
  L 625.65 310.59
  A 0.40 0.40 0.0 0 0 626.05 310.19
  L 626.05 264.19
  Z
  M 326.93 329.94
  L 327.00 334.37
  Q 327.01 334.97 327.62 334.99
  L 328.49 335.01
  Q 329.00 335.02 329.01 334.51
  L 329.06 329.99
  A 1.18 1.16 72.6 0 1 329.53 329.07
  Q 330.20 328.58 330.18 327.79
  Q 330.16 327.00 329.37 327.00
  L 326.68 327.01
  A 0.78 0.76 8.7 0 0 325.94 327.54
  Q 325.66 328.40 326.43 328.97
  A 1.23 1.23 0.0 0 1 326.93 329.94
  Z
  M 626.16 333.26
  Q 625.03 331.45 625.96 329.66
  Q 626.24 329.13 626.83 329.04
  L 627.82 328.88
  Q 628.69 328.73 628.36 327.92
  L 628.25 327.64
  Q 627.94 326.85 627.14 327.15
  Q 623.31 328.60 624.26 332.51
  Q 624.90 335.18 627.78 335.12
  A 0.64 0.64 0.0 0 0 628.40 334.48
  L 628.39 332.10
  Q 628.39 331.22 627.54 331.43
  L 627.02 331.56
  Q 626.33 331.73 626.65 332.37
  Q 626.84 332.74 626.76 333.15
  Q 626.60 333.98 626.16 333.26
  Z
  M 337.02 330.45
  L 337.17 327.97
  A 0.55 0.55 0.0 0 0 336.68 327.39
  L 336.31 327.35
  Q 335.77 327.30 335.77 327.84
  L 335.79 334.53
  Q 335.79 335.02 336.28 334.97
  L 336.79 334.92
  Q 337.21 334.88 337.16 334.46
  L 336.97 333.00
  A 0.72 0.72 0.0 0 1 337.48 332.23
  Q 337.79 332.13 338.11 332.25
  Q 338.69 332.46 338.70 333.08
  L 338.73 334.75
  Q 338.73 335.14 339.13 335.13
  L 339.56 335.11
  Q 340.16 335.09 340.16 334.49
  L 340.13 327.99
  Q 340.12 327.29 339.43 327.26
  L 339.09 327.24
  Q 338.77 327.23 338.75 327.55
  L 338.59 330.22
  A 0.77 0.77 0.0 0 1 337.78 330.95
  L 337.46 330.94
  Q 336.99 330.91 337.02 330.45
  Z
  M 347.71 331.94
  L 348.80 331.73
  Q 349.36 331.62 349.19 331.08
  Q 348.93 330.25 347.90 330.40
  Q 347.14 330.51 347.11 329.74
  Q 347.10 329.57 347.20 329.42
  Q 347.42 329.12 347.80 329.05
  Q 348.28 328.98 348.77 328.89
  A 0.75 0.75 0.0 0 0 349.38 328.23
  Q 349.48 327.27 348.52 327.25
  Q 347.51 327.23 346.49 327.27
  A 0.70 0.70 0.0 0 0 345.81 327.97
  L 345.75 334.35
  Q 345.75 334.96 346.35 334.97
  L 348.74 335.04
  Q 349.29 335.06 349.29 334.51
  L 349.28 334.04
  Q 349.28 333.54 348.79 333.52
  L 347.78 333.49
  Q 347.29 333.47 347.16 333.00
  Q 347.09 332.79 347.12 332.58
  A 0.73 0.72 -2.7 0 1 347.71 331.94
  Z
  M 367.67 330.28
  Q 367.33 329.27 367.30 328.15
  Q 367.28 327.36 366.49 327.31
  L 366.23 327.29
  A 0.62 0.62 0.0 0 0 365.59 327.77
  L 364.93 330.64
  A 0.28 0.27 46.9 0 1 364.39 330.62
  L 363.98 328.09
  A 0.93 0.92 2.0 0 0 363.27 327.34
  L 363.01 327.28
  Q 362.35 327.13 362.42 327.81
  Q 362.83 331.64 364.07 334.70
  Q 364.30 335.26 364.90 335.17
  Q 365.58 335.06 365.63 334.38
  Q 365.69 333.45 366.23 332.77
  Q 366.81 332.04 366.83 332.97
  Q 366.85 334.09 367.37 334.90
  A 0.67 0.67 0.0 0 0 368.59 334.70
  L 370.27 328.03
  A 0.53 0.52 12.6 0 0 369.86 327.39
  L 369.55 327.32
  A 0.68 0.67 -82.7 0 0 368.74 327.95
  Q 368.68 329.25 368.23 330.30
  Q 367.92 331.04 367.67 330.28
  Z
  M 389.08 333.39
  Q 389.60 333.44 389.70 333.97
  Q 389.94 335.24 390.97 335.12
  Q 392.50 334.93 391.38 333.87
  Q 389.91 332.49 391.04 331.16
  Q 391.48 330.64 391.49 329.95
  Q 391.49 327.13 388.23 327.25
  Q 387.33 327.29 387.30 328.18
  L 387.08 334.25
  Q 387.07 334.60 387.32 334.84
  Q 387.72 335.22 388.29 335.05
  Q 388.71 334.93 388.70 334.50
  L 388.69 333.76
  A 0.36 0.36 0.0 0 1 389.08 333.39
  Z
  M 397.33 328.01
  L 397.31 334.31
  A 0.80 0.80 0.0 0 0 398.11 335.11
  L 398.95 335.12
  A 3.47 3.40 -89.8 0 0 402.36 331.66
  L 402.36 330.70
  A 3.47 3.40 -89.8 0 0 398.97 327.22
  L 398.13 327.21
  A 0.80 0.80 0.0 0 0 397.33 328.01
  Z
  M 429.16 330.61
  L 428.28 327.95
  Q 428.15 327.56 427.77 327.41
  Q 427.53 327.32 427.29 327.35
  A 0.62 0.61 -3.7 0 0 426.75 327.96
  L 426.81 334.47
  Q 426.82 335.01 427.35 334.94
  L 427.69 334.90
  A 0.52 0.52 0.0 0 0 428.15 334.32
  Q 428.06 333.52 428.23 332.83
  Q 428.44 331.95 428.80 332.78
  Q 429.23 333.76 429.71 334.64
  Q 429.85 334.92 430.14 335.07
  Q 430.50 335.26 430.85 335.11
  Q 431.21 334.96 431.22 334.56
  Q 431.26 330.85 431.18 327.81
  Q 431.17 327.33 430.69 327.31
  L 430.29 327.29
  Q 429.75 327.26 429.78 327.80
  Q 429.84 329.23 429.63 330.57
  Q 429.47 331.56 429.16 330.61
  Z
  M 447.61 328.85
  Q 448.02 328.82 448.24 328.51
  Q 448.82 327.67 447.83 327.41
  Q 445.92 326.92 444.42 327.62
  Q 443.58 328.01 444.37 328.49
  L 445.05 328.91
  A 0.98 0.96 -74.7 0 1 445.51 329.74
  L 445.46 334.69
  Q 445.45 335.18 445.94 335.14
  L 446.22 335.11
  Q 446.97 335.05 446.97 334.29
  L 446.95 329.57
  A 0.73 0.72 -2.6 0 1 447.61 328.85
  Z
  M 455.37 330.23
  L 455.41 327.95
  Q 455.42 327.39 454.86 327.36
  L 454.45 327.34
  A 0.47 0.47 0.0 0 0 453.96 327.80
  L 453.79 334.27
  A 0.75 0.74 -86.8 0 0 454.47 335.04
  L 454.81 335.07
  Q 455.43 335.12 455.41 334.51
  L 455.36 332.93
  Q 455.34 332.20 456.06 332.20
  L 456.46 332.20
  Q 457.22 332.20 457.22 332.96
  L 457.23 334.68
  A 0.48 0.48 0.0 0 0 457.75 335.16
  L 458.07 335.14
  Q 458.68 335.09 458.70 334.48
  Q 458.79 331.48 458.66 328.59
  Q 458.54 325.92 457.10 328.16
  Q 456.82 328.59 457.15 329.89
  A 0.79 0.78 76.6 0 1 456.56 330.86
  L 456.22 330.94
  Q 455.35 331.13 455.37 330.23
  Z
  M 465.78 329.91
  Q 465.71 329.75 465.74 329.58
  Q 465.83 329.10 466.30 328.97
  L 467.20 328.73
  Q 469.12 328.23 467.30 327.45
  Q 466.11 326.95 464.75 327.35
  A 0.68 0.68 0.0 0 0 464.26 328.00
  L 464.24 334.44
  Q 464.24 335.00 464.80 335.08
  Q 466.11 335.25 467.30 334.83
  Q 468.13 334.54 467.61 333.84
  Q 467.28 333.39 466.86 333.49
  Q 466.17 333.66 465.87 333.02
  Q 465.74 332.75 465.81 332.45
  Q 465.93 331.92 466.47 331.85
  Q 467.03 331.77 467.57 331.57
  Q 468.37 331.28 467.65 330.82
  Q 467.23 330.54 466.72 330.53
  Q 466.05 330.52 465.78 329.91
  Z
  M 482.12 329.72
  L 482.02 334.33
  Q 482.00 335.03 482.70 335.14
  L 483.05 335.20
  A 0.51 0.50 -85.6 0 0 483.63 334.70
  L 483.60 329.50
  Q 483.60 329.00 484.08 328.88
  Q 484.56 328.76 484.85 328.38
  Q 485.35 327.71 484.54 327.49
  Q 482.77 327.02 481.14 327.43
  A 0.63 0.62 -20.2 0 0 480.73 328.31
  Q 480.94 328.75 481.40 328.83
  A 0.88 0.87 -84.3 0 1 482.12 329.72
  Z
  M 492.1311 327.8538
  A 0.60 0.60 0.0 0 0 491.5259 327.2590
  L 491.2659 327.2613
  A 0.60 0.60 0.0 0 0 490.6711 327.8665
  L 490.7289 334.4862
  A 0.60 0.60 0.0 0 0 491.3341 335.0810
  L 491.5941 335.0787
  A 0.60 0.60 0.0 0 0 492.1889 334.4735
  L 492.1311 327.8538
  Z
  M 499.66 332.68
  L 500.70 332.36
  Q 501.33 332.17 501.46 331.52
  C 501.98 328.99 501.33 327.14 498.37 327.30
  Q 497.76 327.33 497.76 327.94
  L 497.76 334.71
  Q 497.76 335.18 498.22 335.14
  L 498.48 335.11
  Q 499.01 335.07 499.05 334.54
  L 499.13 333.35
  Q 499.16 332.83 499.66 332.68
  Z
  M 528.00 330.35
  Q 526.59 329.61 528.09 329.10
  L 529.09 328.76
  Q 529.64 328.57 529.43 328.02
  Q 528.99 326.89 527.42 327.13
  Q 526.14 327.33 526.14 328.63
  L 526.15 334.28
  Q 526.15 334.81 526.67 334.85
  Q 527.05 334.88 527.36 334.65
  Q 527.80 334.33 527.57 333.83
  Q 527.27 333.22 527.38 332.52
  A 0.58 0.57 -2.4 0 1 527.82 332.05
  L 528.74 331.84
  Q 529.26 331.72 529.28 331.17
  Q 529.29 330.64 528.76 330.58
  Q 528.35 330.53 528.00 330.35
  Z
  M 545.34 329.23
  Q 544.65 330.12 544.46 329.01
  Q 544.19 327.49 543.28 327.29
  A 0.57 0.57 0.0 0 0 542.66 328.10
  Q 544.35 331.48 544.19 334.58
  A 0.48 0.47 -86.9 0 0 544.63 335.08
  L 544.92 335.10
  Q 545.71 335.16 545.75 334.36
  Q 545.94 330.48 547.58 327.88
  A 0.35 0.34 21.5 0 0 547.35 327.36
  L 546.80 327.25
  A 0.50 0.49 -74.6 0 0 546.22 327.58
  Q 545.88 328.53 545.34 329.23
  Z
  M 556.2438 335.2600
  A 3.95 3.18 89.8 0 0 559.4100 331.2989
  A 3.95 3.18 89.8 0 0 556.2162 327.3600
  A 3.95 3.18 89.8 0 0 553.0500 331.3211
  A 3.95 3.18 89.8 0 0 556.2438 335.2600
  Z
  M 567.05 333.34
  Q 566.45 332.71 566.47 331.76
  Q 566.50 329.73 566.58 327.99
  Q 566.60 327.36 565.98 327.33
  L 565.44 327.29
  A 0.52 0.52 0.0 0 0 564.89 327.81
  L 564.88 333.24
  A 1.91 1.91 0.0 0 0 567.12 335.13
  L 567.62 335.04
  A 1.99 1.98 85.9 0 0 569.26 333.14
  L 569.41 327.99
  Q 569.43 327.30 568.74 327.33
  L 568.47 327.34
  A 0.52 0.52 0.0 0 0 567.97 327.86
  L 567.99 332.97
  A 0.55 0.54 23.1 0 1 567.05 333.34
  Z
  M 577.55 334.62
  Q 577.97 335.09 578.55 334.99
  Q 579.72 334.77 578.83 333.97
  Q 577.48 332.75 578.36 331.36
  Q 580.08 328.66 577.20 327.31
  A 1.50 1.49 12.2 0 0 575.07 328.68
  L 575.12 334.45
  Q 575.12 334.92 575.59 334.95
  Q 576.17 334.98 576.60 334.57
  A 0.66 0.66 0.0 0 1 577.55 334.62
  Z
  M 595.65 328.89
  Q 596.02 328.81 596.27 328.52
  A 0.77 0.77 0.0 0 0 595.67 327.24
  L 592.92 327.30
  A 0.63 0.63 0.0 0 0 592.54 328.42
  L 593.23 329.00
  Q 593.61 329.32 593.61 329.81
  L 593.57 334.47
  Q 593.57 334.99 594.09 334.99
  L 594.50 334.99
  Q 594.98 334.99 594.98 334.51
  L 594.99 329.71
  A 0.85 0.84 -6.5 0 1 595.65 328.89
  Z
  M 615.83 332.31
  Q 616.39 333.37 616.84 334.43
  Q 617.09 335.01 617.68 334.94
  Q 618.24 334.88 618.24 334.32
  L 618.21 327.79
  A 0.44 0.43 -1.3 0 0 617.75 327.36
  L 617.45 327.37
  Q 616.84 327.40 616.89 328.01
  Q 616.96 329.01 616.77 329.94
  Q 616.51 331.24 616.13 329.98
  Q 615.86 329.13 615.42 328.39
  Q 613.74 325.54 613.74 328.84
  L 613.74 334.67
  Q 613.74 335.18 614.24 335.15
  L 614.61 335.13
  A 0.62 0.62 0.0 0 0 615.20 334.51
  L 615.20 332.46
  Q 615.21 331.13 615.83 332.31
  Z
  M 635.74 333.17
  Q 635.40 330.53 635.89 327.96
  A 0.47 0.46 -80.8 0 0 635.51 327.42
  L 635.08 327.35
  Q 634.27 327.23 634.28 328.05
  L 634.37 333.35
  Q 634.38 333.92 634.77 334.34
  C 635.82 335.43 638.11 335.51 638.58 333.77
  C 639.08 331.96 638.98 329.81 638.93 327.98
  Q 638.91 327.24 638.17 327.30
  L 637.80 327.33
  Q 637.30 327.37 637.31 327.86
  Q 637.36 330.24 637.21 332.60
  Q 637.17 333.33 636.52 333.61
  Q 635.84 333.90 635.74 333.17
  Z
  M 646.69 328.92
  Q 647.39 329.02 647.92 328.60
  A 0.74 0.74 0.0 0 0 647.47 327.27
  L 645.01 327.25
  Q 644.52 327.25 644.51 327.74
  L 644.36 334.32
  Q 644.34 335.05 645.07 335.04
  L 647.42 335.02
  Q 647.99 335.01 648.02 334.44
  L 648.03 334.07
  Q 648.06 333.55 647.53 333.54
  L 646.54 333.53
  Q 646.06 333.53 645.96 333.06
  Q 645.90 332.75 645.95 332.45
  Q 646.06 331.75 646.77 331.78
  Q 647.26 331.81 647.74 331.67
  Q 648.07 331.57 648.02 331.22
  L 647.97 330.88
  Q 647.92 330.56 647.60 330.54
  L 646.33 330.47
  Q 645.94 330.45 645.90 330.06
  Q 645.88 329.85 645.88 329.63
  A 0.70 0.70 0.0 0 1 646.69 328.92
  Z
  M 378.9546 335.1288
  A 3.87 2.86 88.6 0 0 381.7191 331.1901
  A 3.87 2.86 88.6 0 0 378.7654 327.3912
  A 3.87 2.86 88.6 0 0 376.0009 331.3299
  A 3.87 2.86 88.6 0 0 378.9546 335.1288
  Z
  M 418.0652 335.1488
  A 3.88 2.87 91.4 0 0 421.0291 331.3401
  A 3.88 2.87 91.4 0 0 418.2548 327.3912
  A 3.88 2.87 91.4 0 0 415.2909 331.1999
  A 3.88 2.87 91.4 0 0 418.0652 335.1488
  Z
  M 517.4192 335.1395
  A 3.87 2.84 90.9 0 0 520.3196 331.3146
  A 3.87 2.84 90.9 0 0 517.5408 327.4005
  A 3.87 2.84 90.9 0 0 514.6404 331.2254
  A 3.87 2.84 90.9 0 0 517.4192 335.1395
  Z
  M 605.1380 335.2497
  A 3.93 3.15 89.3 0 0 608.2398 331.2815
  A 3.93 3.15 89.3 0 0 605.0420 327.3903
  A 3.93 3.15 89.3 0 0 601.9402 331.3585
  A 3.93 3.15 89.3 0 0 605.1380 335.2497
  Z"
/>
<path fill="#242633" d="
  M 155.92 294.76
  L 152.49 290.02
  A 0.72 0.63 2.5 0 0 152.28 289.82
  Q 150.32 288.57 149.94 286.21
  Q 149.86 285.73 149.56 285.34
  Q 147.30 282.41 147.22 279.60
  Q 147.17 277.71 146.56 276.39
  Q 146.30 275.82 146.14 275.20
  Q 143.59 264.90 145.34 254.48
  Q 145.76 251.99 146.59 249.53
  Q 147.16 247.80 147.30 246.14
  C 147.58 242.61 150.73 238.01 152.71 234.91
  Q 153.19 234.16 153.97 233.75
  Q 154.40 233.52 154.67 233.11
  Q 155.15 232.39 155.39 231.63
  Q 155.68 230.71 156.30 230.03
  Q 163.36 222.30 170.41 218.49
  Q 175.77 215.58 183.26 213.49
  C 192.09 211.02 202.04 211.35 210.82 214.54
  C 214.65 215.93 218.71 217.22 222.08 219.45
  Q 229.94 224.64 234.44 230.29
  Q 237.29 233.87 240.15 238.65
  Q 242.96 243.35 244.21 247.86
  Q 247.36 259.21 245.49 270.44
  Q 244.73 274.98 243.19 280.79
  Q 242.73 282.52 241.92 283.99
  C 240.64 286.32 239.49 288.48 237.93 290.70
  Q 236.71 292.44 235.77 294.26
  Q 235.36 295.07 234.74 295.67
  Q 234.29 296.11 234.13 296.66
  Q 233.94 297.29 234.41 297.75
  L 294.03 357.40
  Q 296.15 359.53 294.39 361.96
  Q 294.08 362.40 293.47 362.68
  Q 291.45 363.60 289.86 362.04
  Q 281.64 353.98 274.37 346.48
  Q 272.46 344.52 270.43 342.25
  C 268.70 340.32 266.28 338.75 264.60 337.03
  Q 253.14 325.26 241.09 313.38
  Q 239.91 312.22 239.14 310.95
  Q 237.68 308.57 235.48 307.21
  Q 233.93 306.25 232.69 305.02
  Q 231.08 303.42 229.52 301.65
  A 0.61 0.60 -43.1 0 0 228.64 301.63
  Q 224.80 305.46 219.73 307.78
  Q 216.91 309.07 213.76 310.44
  C 202.13 315.49 189.15 315.44 177.58 310.71
  Q 174.29 309.36 171.41 307.66
  Q 169.42 306.49 167.34 305.72
  Q 165.26 304.96 163.76 303.18
  Q 160.92 299.78 157.56 297.07
  Q 156.49 296.21 155.98 294.88
  A 0.37 0.27 -80.8 0 0 155.92 294.76
  Z
  M 161.95 292.23
  Q 163.38 295.19 165.93 297.10
  Q 172.01 301.66 178.93 304.76
  C 182.29 306.26 186.15 307.32 189.76 307.57
  Q 194.39 307.89 199.60 307.65
  C 207.58 307.28 214.19 304.05 221.01 299.76
  Q 222.50 298.82 223.76 297.68
  Q 225.20 296.37 226.83 295.21
  Q 228.66 293.92 230.32 291.32
  Q 232.17 288.43 234.21 285.50
  Q 236.63 282.02 237.47 279.23
  Q 240.15 270.34 239.90 261.62
  C 239.78 256.99 238.53 252.49 237.70 247.89
  C 237.32 245.84 236.45 243.81 235.23 242.12
  Q 233.60 239.83 232.10 237.52
  Q 230.27 234.69 228.69 233.05
  Q 224.28 228.45 219.07 224.73
  Q 218.98 224.66 218.86 224.63
  Q 218.65 224.58 218.41 224.60
  A 1.21 1.15 58.4 0 1 217.77 224.43
  C 205.83 217.23 190.97 215.89 177.91 221.86
  Q 173.09 224.07 171.26 225.13
  Q 166.62 227.83 162.13 233.07
  Q 158.36 237.46 154.84 243.17
  Q 153.77 244.90 153.34 246.99
  Q 152.64 250.34 151.90 253.25
  Q 149.23 263.73 152.29 274.51
  Q 152.31 274.61 153.16 278.58
  Q 153.72 281.25 155.31 283.79
  Q 158.41 288.75 161.14 291.63
  Q 161.28 291.78 161.48 291.83
  Q 161.81 291.92 161.95 292.23
  Z"
/>
<path fill="#f0f0f0" d="
  M 161.48 291.83
  Q 161.28 291.78 161.14 291.63
  Q 158.41 288.75 155.31 283.79
  Q 153.72 281.25 153.16 278.58
  Q 152.31 274.61 152.29 274.51
  Q 149.23 263.73 151.90 253.25
  Q 152.64 250.34 153.34 246.99
  Q 153.77 244.90 154.84 243.17
  Q 158.36 237.46 162.13 233.07
  Q 166.62 227.83 171.26 225.13
  Q 173.09 224.07 177.91 221.86
  C 190.97 215.89 205.83 217.23 217.77 224.43
  A 1.21 1.15 58.4 0 0 218.41 224.60
  Q 218.65 224.58 218.86 224.63
  Q 218.98 224.66 219.07 224.73
  Q 224.28 228.45 228.69 233.05
  Q 230.27 234.69 232.10 237.52
  Q 233.60 239.83 235.23 242.12
  C 236.45 243.81 237.32 245.84 237.70 247.89
  C 238.53 252.49 239.78 256.99 239.90 261.62
  Q 240.15 270.34 237.47 279.23
  Q 236.63 282.02 234.21 285.50
  Q 232.17 288.43 230.32 291.32
  Q 228.66 293.92 226.83 295.21
  Q 225.20 296.37 223.76 297.68
  Q 222.50 298.82 221.01 299.76
  C 214.19 304.05 207.58 307.28 199.60 307.65
  Q 194.39 307.89 189.76 307.57
  C 186.15 307.32 182.29 306.26 178.93 304.76
  Q 172.01 301.66 165.93 297.10
  Q 163.38 295.19 161.95 292.23
  Q 161.81 291.92 161.48 291.83
  Z"
/>
<path fill="#242633" d="
  M 566.76 268.14
  C 567.50 267.48 567.78 266.77 568.71 266.22
  Q 578.76 260.25 589.54 264.54
  C 595.57 266.94 597.94 274.56 597.95 280.48
  Q 597.97 295.22 597.99 309.96
  Q 597.99 310.50 597.44 310.50
  L 585.01 310.49
  A 0.37 0.37 0.0 0 1 584.64 310.11
  Q 584.73 298.34 584.63 286.18
  Q 584.62 284.33 584.81 282.40
  C 585.07 279.65 583.64 274.27 580.16 273.87
  Q 574.67 273.23 569.74 275.01
  Q 568.48 275.47 567.60 276.68
  Q 566.12 278.70 566.08 281.09
  Q 565.85 294.09 566.00 309.80
  Q 566.00 310.50 565.29 310.50
  L 553.22 310.49
  Q 552.45 310.49 552.45 309.72
  L 552.48 241.08
  A 0.44 0.43 0.0 0 1 552.92 240.65
  L 565.43 240.66
  A 0.53 0.52 0.6 0 1 565.95 241.18
  L 565.98 267.79
  Q 565.98 268.84 566.76 268.14
  Z"
/>
<circle fill="#242633" cx="619.40" cy="249.09" r="7.59"/>
<path fill="#242633" d="
  M 339.69 307.43
  Q 338.06 306.41 337.46 305.05
  Q 335.52 300.75 335.51 295.46
  Q 335.48 284.60 335.49 274.48
  Q 335.49 273.75 334.76 273.76
  L 326.73 273.88
  Q 326.32 273.88 326.32 273.48
  L 326.24 264.35
  Q 326.23 263.76 326.82 263.77
  C 329.95 263.80 332.68 263.88 334.81 261.74
  C 337.45 259.10 336.73 252.75 336.71 249.25
  Q 336.71 248.66 337.29 248.66
  L 347.95 248.70
  A 0.74 0.73 -89.6 0 1 348.68 249.45
  L 348.62 263.39
  A 0.40 0.40 0.0 0 0 349.01 263.79
  L 358.23 263.80
  Q 358.48 263.80 358.48 264.05
  L 358.47 273.58
  Q 358.47 273.85 358.21 273.85
  L 349.20 273.83
  Q 348.62 273.82 348.62 274.40
  Q 348.63 284.05 348.64 294.75
  Q 348.64 298.18 350.77 299.91
  Q 351.21 300.26 351.78 300.29
  L 357.76 300.52
  A 0.74 0.74 0.0 0 1 358.47 301.26
  L 358.48 310.03
  Q 358.48 310.62 357.89 310.65
  Q 355.46 310.77 352.92 310.62
  Q 350.74 310.49 348.76 310.40
  Q 344.08 310.20 339.69 307.43
  Z"
/>
<path fill="#242633" d="
  M 704.81 273.83
  L 696.81 273.84
  Q 696.03 273.84 696.03 273.06
  L 696.02 264.72
  Q 696.02 263.55 697.17 263.72
  C 702.50 264.49 706.72 261.89 706.89 256.22
  Q 707.00 252.73 706.97 249.28
  Q 706.96 248.71 707.54 248.71
  L 717.99 248.70
  Q 718.53 248.70 718.53 249.24
  L 718.53 263.27
  A 0.49 0.49 0.0 0 0 719.02 263.76
  L 728.02 263.81
  Q 728.22 263.81 728.23 264.02
  L 728.24 273.58
  Q 728.24 273.91 727.92 273.90
  L 719.03 273.79
  A 0.52 0.51 0.0 0 0 718.50 274.31
  Q 718.55 284.26 718.51 294.11
  C 718.48 300.41 721.82 300.90 727.10 300.42
  Q 728.24 300.32 728.24 301.47
  L 728.21 309.58
  Q 728.21 310.49 727.29 310.55
  Q 721.37 310.87 715.75 310.09
  C 708.79 309.12 705.52 303.22 705.48 296.81
  Q 705.39 285.03 705.45 274.48
  Q 705.46 273.83 704.81 273.83
  Z"
/>
<path fill="#242633" d="
  M 402.32 309.41
  Q 402.23 309.64 402.01 309.72
  Q 391.58 313.52 381.34 309.45
  C 379.70 308.80 378.27 307.78 376.65 307.12
  Q 375.27 306.56 374.05 305.46
  Q 372.33 303.90 371.86 303.13
  Q 364.43 290.89 368.84 277.11
  Q 370.71 271.25 375.66 267.72
  Q 383.77 261.92 394.65 262.79
  Q 400.67 263.27 406.91 267.22
  Q 409.22 268.69 410.49 271.00
  Q 412.92 275.41 413.86 278.66
  Q 415.26 283.49 414.95 289.23
  Q 414.91 289.91 414.23 289.91
  L 380.43 289.83
  A 0.53 0.53 0.0 0 0 379.90 290.43
  Q 380.85 297.51 387.25 300.95
  A 1.84 1.74 -33.1 0 0 388.31 301.14
  Q 391.40 300.75 395.02 300.95
  Q 396.81 301.05 398.27 300.04
  Q 400.36 298.59 401.68 296.73
  Q 401.91 296.40 401.88 296.01
  Q 401.87 295.81 401.94 295.62
  Q 402.22 294.79 403.08 294.93
  L 412.74 296.50
  Q 414.81 296.84 413.55 298.53
  Q 411.25 301.59 409.61 304.67
  Q 408.89 306.03 407.40 306.77
  Q 405.15 307.89 402.73 308.96
  Q 402.43 309.10 402.32 309.41
  Z
  M 380.76 281.27
  L 401.96 280.97
  A 0.12 0.12 0.0 0 0 402.08 280.85
  L 402.08 280.83
  A 10.52 8.84 -0.8 0 0 391.44 272.14
  L 391.04 272.14
  A 10.52 8.84 -0.8 0 0 380.64 281.13
  L 380.64 281.15
  A 0.12 0.12 0.0 0 0 380.76 281.27
  Z"
/>
<path fill="#242633" d="
  M 509.47 266.93
  Q 511.12 265.16 513.47 264.27
  Q 522.99 260.62 531.77 265.66
  Q 534.80 267.40 535.92 270.35
  Q 537.36 274.16 537.35 278.30
  Q 537.32 293.47 537.33 309.97
  Q 537.33 310.57 536.73 310.57
  L 525.04 310.59
  Q 524.48 310.59 524.48 310.04
  Q 524.53 295.56 524.47 280.97
  C 524.45 278.55 523.59 276.28 521.47 274.99
  Q 516.87 272.17 511.77 274.86
  Q 509.58 276.00 509.03 278.16
  Q 508.24 281.25 508.24 284.25
  Q 508.23 296.93 508.24 309.96
  Q 508.25 310.50 507.70 310.50
  L 495.01 310.49
  Q 494.62 310.49 494.62 310.10
  Q 494.71 295.58 494.57 278.84
  Q 494.56 277.41 493.73 276.12
  Q 492.26 273.84 490.10 273.66
  Q 487.45 273.44 484.88 273.91
  Q 481.79 274.47 480.22 276.71
  Q 478.35 279.36 478.32 282.89
  Q 478.20 296.19 478.27 309.91
  Q 478.27 310.49 477.70 310.49
  L 465.76 310.50
  Q 465.27 310.50 465.27 310.01
  L 465.27 264.25
  A 0.48 0.48 0.0 0 1 465.75 263.77
  L 477.68 263.81
  Q 478.29 263.81 478.28 264.43
  L 478.21 268.04
  Q 478.20 268.78 478.76 268.31
  Q 483.66 264.24 487.53 263.35
  Q 499.05 260.72 506.10 269.14
  Q 506.66 269.80 507.06 269.03
  C 507.58 268.05 508.70 267.76 509.47 266.93
  Z"
/>
<path fill="#242633" d="
  M 670.68 274.34
  Q 669.77 273.69 668.75 273.62
  Q 667.70 273.54 666.66 273.32
  Q 662.35 272.39 659.76 274.26
  Q 655.38 277.42 655.28 283.25
  Q 655.04 296.29 655.05 310.28
  Q 655.05 310.62 654.71 310.62
  L 642.27 310.56
  A 0.25 0.25 0.0 0 1 642.02 310.31
  L 641.89 264.47
  A 0.69 0.68 -90.0 0 1 642.57 263.78
  L 654.44 263.80
  Q 655.07 263.80 655.07 264.44
  L 655.07 267.82
  Q 655.06 268.62 655.69 268.13
  C 657.56 266.67 659.62 265.12 661.83 264.28
  Q 671.33 260.70 680.36 265.38
  C 684.53 267.53 686.68 272.85 686.91 277.10
  Q 687.29 284.00 687.01 310.07
  Q 687.00 310.62 686.45 310.62
  L 674.77 310.58
  Q 674.15 310.58 674.15 309.96
  Q 674.18 296.43 674.17 282.18
  C 674.17 278.74 673.53 276.39 670.68 274.34
  Z"
/>
<path fill="#242633" d="
  M 445.17 276.21
  C 444.25 276.65 442.95 278.07 442.49 278.98
  Q 440.53 282.86 440.58 288.72
  Q 440.68 299.17 440.63 309.90
  Q 440.63 310.49 440.04 310.50
  L 428.13 310.52
  Q 427.49 310.52 427.49 309.88
  L 427.42 264.55
  Q 427.42 263.77 428.20 263.78
  L 439.17 263.84
  Q 440.00 263.85 440.00 264.67
  L 439.98 269.72
  Q 439.98 270.52 440.54 269.96
  C 441.19 269.31 441.65 268.69 442.51 268.28
  Q 444.05 267.55 445.19 266.39
  C 447.25 264.32 451.96 263.38 454.65 263.06
  A 0.46 0.45 -3.4 0 1 455.16 263.51
  L 455.15 273.46
  A 1.18 1.18 0.0 0 1 453.53 274.55
  Q 452.74 274.24 451.86 274.35
  Q 448.05 274.84 445.17 276.21
  Z"
/>
<rect fill="#242633" x="612.69" y="263.79" width="13.36" height="46.80" rx="0.40"/>
<path fill="#f0f0f0" d="
  M 380.76 281.27
  A 0.12 0.12 0.0 0 1 380.64 281.15
  L 380.64 281.13
  A 10.52 8.84 -0.8 0 1 391.04 272.14
  L 391.44 272.14
  A 10.52 8.84 -0.8 0 1 402.08 280.83
  L 402.08 280.85
  A 0.12 0.12 0.0 0 1 401.96 280.97
  L 380.76 281.27
  Z"
/>
<path fill="#242633" d="
  M 326.43 328.97
  Q 325.66 328.40 325.94 327.54
  A 0.78 0.76 8.7 0 1 326.68 327.01
  L 329.37 327.00
  Q 330.16 327.00 330.18 327.79
  Q 330.20 328.58 329.53 329.07
  A 1.18 1.16 72.6 0 0 329.06 329.99
  L 329.01 334.51
  Q 329.00 335.02 328.49 335.01
  L 327.62 334.99
  Q 327.01 334.97 327.00 334.37
  L 326.93 329.94
  A 1.23 1.23 0.0 0 0 326.43 328.97
  Z"
/>
<path fill="#242633" d="
  M 626.76 333.15
  Q 626.84 332.74 626.65 332.37
  Q 626.33 331.73 627.02 331.56
  L 627.54 331.43
  Q 628.39 331.22 628.39 332.10
  L 628.40 334.48
  A 0.64 0.64 0.0 0 1 627.78 335.12
  Q 624.90 335.18 624.26 332.51
  Q 623.31 328.60 627.14 327.15
  Q 627.94 326.85 628.25 327.64
  L 628.36 327.92
  Q 628.69 328.73 627.82 328.88
  L 626.83 329.04
  Q 626.24 329.13 625.96 329.66
  Q 625.03 331.45 626.16 333.26
  Q 626.60 333.98 626.76 333.15
  Z"
/>
<path fill="#242633" d="
  M 337.02 330.45
  Q 336.99 330.91 337.46 330.94
  L 337.78 330.95
  A 0.77 0.77 0.0 0 0 338.59 330.22
  L 338.75 327.55
  Q 338.77 327.23 339.09 327.24
  L 339.43 327.26
  Q 340.12 327.29 340.13 327.99
  L 340.16 334.49
  Q 340.16 335.09 339.56 335.11
  L 339.13 335.13
  Q 338.73 335.14 338.73 334.75
  L 338.70 333.08
  Q 338.69 332.46 338.11 332.25
  Q 337.79 332.13 337.48 332.23
  A 0.72 0.72 0.0 0 0 336.97 333.00
  L 337.16 334.46
  Q 337.21 334.88 336.79 334.92
  L 336.28 334.97
  Q 335.79 335.02 335.79 334.53
  L 335.77 327.84
  Q 335.77 327.30 336.31 327.35
  L 336.68 327.39
  A 0.55 0.55 0.0 0 1 337.17 327.97
  L 337.02 330.45
  Z"
/>
<path fill="#242633" d="
  M 347.12 332.58
  Q 347.09 332.79 347.16 333.00
  Q 347.29 333.47 347.78 333.49
  L 348.79 333.52
  Q 349.28 333.54 349.28 334.04
  L 349.29 334.51
  Q 349.29 335.06 348.74 335.04
  L 346.35 334.97
  Q 345.75 334.96 345.75 334.35
  L 345.81 327.97
  A 0.70 0.70 0.0 0 1 346.49 327.27
  Q 347.51 327.23 348.52 327.25
  Q 349.48 327.27 349.38 328.23
  A 0.75 0.75 0.0 0 1 348.77 328.89
  Q 348.28 328.98 347.80 329.05
  Q 347.42 329.12 347.20 329.42
  Q 347.10 329.57 347.11 329.74
  Q 347.14 330.51 347.90 330.40
  Q 348.93 330.25 349.19 331.08
  Q 349.36 331.62 348.80 331.73
  L 347.71 331.94
  A 0.73 0.72 -2.7 0 0 347.12 332.58
  Z"
/>
<path fill="#242633" d="
  M 368.23 330.30
  Q 368.68 329.25 368.74 327.95
  A 0.68 0.67 -82.7 0 1 369.55 327.32
  L 369.86 327.39
  A 0.53 0.52 12.6 0 1 370.27 328.03
  L 368.59 334.70
  A 0.67 0.67 0.0 0 1 367.37 334.90
  Q 366.85 334.09 366.83 332.97
  Q 366.81 332.04 366.23 332.77
  Q 365.69 333.45 365.63 334.38
  Q 365.58 335.06 364.90 335.17
  Q 364.30 335.26 364.07 334.70
  Q 362.83 331.64 362.42 327.81
  Q 362.35 327.13 363.01 327.28
  L 363.27 327.34
  A 0.93 0.92 2.0 0 1 363.98 328.09
  L 364.39 330.62
  A 0.28 0.27 46.9 0 0 364.93 330.64
  L 365.59 327.77
  A 0.62 0.62 0.0 0 1 366.23 327.29
  L 366.49 327.31
  Q 367.28 327.36 367.30 328.15
  Q 367.33 329.27 367.67 330.28
  Q 367.92 331.04 368.23 330.30
  Z"
/>
<path fill="#242633" d="
  M 388.69 333.76
  L 388.70 334.50
  Q 388.71 334.93 388.29 335.05
  Q 387.72 335.22 387.32 334.84
  Q 387.07 334.60 387.08 334.25
  L 387.30 328.18
  Q 387.33 327.29 388.23 327.25
  Q 391.49 327.13 391.49 329.95
  Q 391.48 330.64 391.04 331.16
  Q 389.91 332.49 391.38 333.87
  Q 392.50 334.93 390.97 335.12
  Q 389.94 335.24 389.70 333.97
  Q 389.60 333.44 389.08 333.39
  A 0.36 0.36 0.0 0 0 388.69 333.76
  Z
  M 388.95 329.27
  Q 388.33 329.93 388.78 330.72
  A 0.55 0.54 46.0 0 0 389.72 330.74
  Q 390.12 330.08 389.87 329.44
  A 0.56 0.56 0.0 0 0 388.95 329.27
  Z"
/>
<path fill="#242633" d="
  M 397.33 328.01
  A 0.80 0.80 0.0 0 1 398.13 327.21
  L 398.97 327.22
  A 3.47 3.40 -89.8 0 1 402.36 330.70
  L 402.36 331.66
  A 3.47 3.40 -89.8 0 1 398.95 335.12
  L 398.11 335.11
  A 0.80 0.80 0.0 0 1 397.31 334.31
  L 397.33 328.01
  Z
  M 398.94 329.17
  L 399.00 333.53
  A 0.19 0.19 0.0 0 0 399.20 333.71
  L 399.30 333.71
  A 1.94 1.71 89.1 0 0 400.98 331.74
  L 400.96 330.88
  A 1.94 1.71 89.1 0 0 399.22 328.97
  L 399.12 328.97
  A 0.19 0.19 0.0 0 0 398.94 329.17
  Z"
/>
<path fill="#242633" d="
  M 429.63 330.57
  Q 429.84 329.23 429.78 327.80
  Q 429.75 327.26 430.29 327.29
  L 430.69 327.31
  Q 431.17 327.33 431.18 327.81
  Q 431.26 330.85 431.22 334.56
  Q 431.21 334.96 430.85 335.11
  Q 430.50 335.26 430.14 335.07
  Q 429.85 334.92 429.71 334.64
  Q 429.23 333.76 428.80 332.78
  Q 428.44 331.95 428.23 332.83
  Q 428.06 333.52 428.15 334.32
  A 0.52 0.52 0.0 0 1 427.69 334.90
  L 427.35 334.94
  Q 426.82 335.01 426.81 334.47
  L 426.75 327.96
  A 0.62 0.61 -3.7 0 1 427.29 327.35
  Q 427.53 327.32 427.77 327.41
  Q 428.15 327.56 428.28 327.95
  L 429.16 330.61
  Q 429.47 331.56 429.63 330.57
  Z"
/>
<path fill="#242633" d="
  M 446.95 329.57
  L 446.97 334.29
  Q 446.97 335.05 446.22 335.11
  L 445.94 335.14
  Q 445.45 335.18 445.46 334.69
  L 445.51 329.74
  A 0.98 0.96 -74.7 0 0 445.05 328.91
  L 444.37 328.49
  Q 443.58 328.01 444.42 327.62
  Q 445.92 326.92 447.83 327.41
  Q 448.82 327.67 448.24 328.51
  Q 448.02 328.82 447.61 328.85
  A 0.73 0.72 -2.6 0 0 446.95 329.57
  Z"
/>
<path fill="#242633" d="
  M 455.37 330.23
  Q 455.35 331.13 456.22 330.94
  L 456.56 330.86
  A 0.79 0.78 76.6 0 0 457.15 329.89
  Q 456.82 328.59 457.10 328.16
  Q 458.54 325.92 458.66 328.59
  Q 458.79 331.48 458.70 334.48
  Q 458.68 335.09 458.07 335.14
  L 457.75 335.16
  A 0.48 0.48 0.0 0 1 457.23 334.68
  L 457.22 332.96
  Q 457.22 332.20 456.46 332.20
  L 456.06 332.20
  Q 455.34 332.20 455.36 332.93
  L 455.41 334.51
  Q 455.43 335.12 454.81 335.07
  L 454.47 335.04
  A 0.75 0.74 -86.8 0 1 453.79 334.27
  L 453.96 327.80
  A 0.47 0.47 0.0 0 1 454.45 327.34
  L 454.86 327.36
  Q 455.42 327.39 455.41 327.95
  L 455.37 330.23
  Z"
/>
<path fill="#242633" d="
  M 466.72 330.53
  Q 467.23 330.54 467.65 330.82
  Q 468.37 331.28 467.57 331.57
  Q 467.03 331.77 466.47 331.85
  Q 465.93 331.92 465.81 332.45
  Q 465.74 332.75 465.87 333.02
  Q 466.17 333.66 466.86 333.49
  Q 467.28 333.39 467.61 333.84
  Q 468.13 334.54 467.30 334.83
  Q 466.11 335.25 464.80 335.08
  Q 464.24 335.00 464.24 334.44
  L 464.26 328.00
  A 0.68 0.68 0.0 0 1 464.75 327.35
  Q 466.11 326.95 467.30 327.45
  Q 469.12 328.23 467.20 328.73
  L 466.30 328.97
  Q 465.83 329.10 465.74 329.58
  Q 465.71 329.75 465.78 329.91
  Q 466.05 330.52 466.72 330.53
  Z"
/>
<path fill="#242633" d="
  M 481.40 328.83
  Q 480.94 328.75 480.73 328.31
  A 0.63 0.62 -20.2 0 1 481.14 327.43
  Q 482.77 327.02 484.54 327.49
  Q 485.35 327.71 484.85 328.38
  Q 484.56 328.76 484.08 328.88
  Q 483.60 329.00 483.60 329.50
  L 483.63 334.70
  A 0.51 0.50 -85.6 0 1 483.05 335.20
  L 482.70 335.14
  Q 482.00 335.03 482.02 334.33
  L 482.12 329.72
  A 0.88 0.87 -84.3 0 0 481.40 328.83
  Z"
/>
<rect fill="#242633" x="-0.73" y="-3.91" transform="translate(491.43,331.17) rotate(-0.5)" width="1.46" height="7.82" rx="0.60"/>
<path fill="#242633" d="
  M 499.13 333.35
  L 499.05 334.54
  Q 499.01 335.07 498.48 335.11
  L 498.22 335.14
  Q 497.76 335.18 497.76 334.71
  L 497.76 327.94
  Q 497.76 327.33 498.37 327.30
  C 501.33 327.14 501.98 328.99 501.46 331.52
  Q 501.33 332.17 500.70 332.36
  L 499.66 332.68
  Q 499.16 332.83 499.13 333.35
  Z
  M 500.06 331.01
  Q 500.91 329.75 499.78 329.10
  Q 499.18 328.76 499.05 329.44
  Q 498.91 330.19 499.13 330.88
  Q 499.46 331.93 500.06 331.01
  Z"
/>
<path fill="#242633" d="
  M 528.00 330.35
  Q 528.35 330.53 528.76 330.58
  Q 529.29 330.64 529.28 331.17
  Q 529.26 331.72 528.74 331.84
  L 527.82 332.05
  A 0.58 0.57 -2.4 0 0 527.38 332.52
  Q 527.27 333.22 527.57 333.83
  Q 527.80 334.33 527.36 334.65
  Q 527.05 334.88 526.67 334.85
  Q 526.15 334.81 526.15 334.28
  L 526.14 328.63
  Q 526.14 327.33 527.42 327.13
  Q 528.99 326.89 529.43 328.02
  Q 529.64 328.57 529.09 328.76
  L 528.09 329.10
  Q 526.59 329.61 528.00 330.35
  Z"
/>
<path fill="#242633" d="
  M 545.34 329.23
  Q 545.88 328.53 546.22 327.58
  A 0.50 0.49 -74.6 0 1 546.80 327.25
  L 547.35 327.36
  A 0.35 0.34 21.5 0 1 547.58 327.88
  Q 545.94 330.48 545.75 334.36
  Q 545.71 335.16 544.92 335.10
  L 544.63 335.08
  A 0.48 0.47 -86.9 0 1 544.19 334.58
  Q 544.35 331.48 542.66 328.10
  A 0.57 0.57 0.0 0 1 543.28 327.29
  Q 544.19 327.49 544.46 329.01
  Q 544.65 330.12 545.34 329.23
  Z"
/>
<path fill="#242633" d="
  M 556.2438 335.2600
  A 3.95 3.18 89.8 0 1 553.0500 331.3211
  A 3.95 3.18 89.8 0 1 556.2162 327.3600
  A 3.95 3.18 89.8 0 1 559.4100 331.2989
  A 3.95 3.18 89.8 0 1 556.2438 335.2600
  Z
  M 556.3045 333.8400
  A 2.58 1.73 89.9 0 0 558.0300 331.2570
  A 2.58 1.73 89.9 0 0 556.2955 328.6800
  A 2.58 1.73 89.9 0 0 554.5700 331.2630
  A 2.58 1.73 89.9 0 0 556.3045 333.8400
  Z"
/>
<path fill="#242633" d="
  M 567.05 333.34
  A 0.55 0.54 23.1 0 0 567.99 332.97
  L 567.97 327.86
  A 0.52 0.52 0.0 0 1 568.47 327.34
  L 568.74 327.33
  Q 569.43 327.30 569.41 327.99
  L 569.26 333.14
  A 1.99 1.98 85.9 0 1 567.62 335.04
  L 567.12 335.13
  A 1.91 1.91 0.0 0 1 564.88 333.24
  L 564.89 327.81
  A 0.52 0.52 0.0 0 1 565.44 327.29
  L 565.98 327.33
  Q 566.60 327.36 566.58 327.99
  Q 566.50 329.73 566.47 331.76
  Q 566.45 332.71 567.05 333.34
  Z"
/>
<path fill="#242633" d="
  M 576.60 334.57
  Q 576.17 334.98 575.59 334.95
  Q 575.12 334.92 575.12 334.45
  L 575.07 328.68
  A 1.50 1.49 12.2 0 1 577.20 327.31
  Q 580.08 328.66 578.36 331.36
  Q 577.48 332.75 578.83 333.97
  Q 579.72 334.77 578.55 334.99
  Q 577.97 335.09 577.55 334.62
  A 0.66 0.66 0.0 0 0 576.60 334.57
  Z
  M 576.26 329.73
  A 0.65 0.64 -67.6 0 0 576.66 330.71
  Q 577.24 330.84 577.62 330.47
  A 0.63 0.62 -51.1 0 0 577.52 329.49
  Q 576.73 329.00 576.26 329.73
  Z"
/>
<path fill="#242633" d="
  M 594.99 329.71
  L 594.98 334.51
  Q 594.98 334.99 594.50 334.99
  L 594.09 334.99
  Q 593.57 334.99 593.57 334.47
  L 593.61 329.81
  Q 593.61 329.32 593.23 329.00
  L 592.54 328.42
  A 0.63 0.63 0.0 0 1 592.92 327.30
  L 595.67 327.24
  A 0.77 0.77 0.0 0 1 596.27 328.52
  Q 596.02 328.81 595.65 328.89
  A 0.85 0.84 -6.5 0 0 594.99 329.71
  Z"
/>
<path fill="#242633" d="
  M 615.20 332.46
  L 615.20 334.51
  A 0.62 0.62 0.0 0 1 614.61 335.13
  L 614.24 335.15
  Q 613.74 335.18 613.74 334.67
  L 613.74 328.84
  Q 613.74 325.54 615.42 328.39
  Q 615.86 329.13 616.13 329.98
  Q 616.51 331.24 616.77 329.94
  Q 616.96 329.01 616.89 328.01
  Q 616.84 327.40 617.45 327.37
  L 617.75 327.36
  A 0.44 0.43 -1.3 0 1 618.21 327.79
  L 618.24 334.32
  Q 618.24 334.88 617.68 334.94
  Q 617.09 335.01 616.84 334.43
  Q 616.39 333.37 615.83 332.31
  Q 615.21 331.13 615.20 332.46
  Z"
/>
<path fill="#242633" d="
  M 636.52 333.61
  Q 637.17 333.33 637.21 332.60
  Q 637.36 330.24 637.31 327.86
  Q 637.30 327.37 637.80 327.33
  L 638.17 327.30
  Q 638.91 327.24 638.93 327.98
  C 638.98 329.81 639.08 331.96 638.58 333.77
  C 638.11 335.51 635.82 335.43 634.77 334.34
  Q 634.38 333.92 634.37 333.35
  L 634.28 328.05
  Q 634.27 327.23 635.08 327.35
  L 635.51 327.42
  A 0.47 0.46 -80.8 0 1 635.89 327.96
  Q 635.40 330.53 635.74 333.17
  Q 635.84 333.90 636.52 333.61
  Z"
/>
<path fill="#242633" d="
  M 645.88 329.63
  Q 645.88 329.85 645.90 330.06
  Q 645.94 330.45 646.33 330.47
  L 647.60 330.54
  Q 647.92 330.56 647.97 330.88
  L 648.02 331.22
  Q 648.07 331.57 647.74 331.67
  Q 647.26 331.81 646.77 331.78
  Q 646.06 331.75 645.95 332.45
  Q 645.90 332.75 645.96 333.06
  Q 646.06 333.53 646.54 333.53
  L 647.53 333.54
  Q 648.06 333.55 648.03 334.07
  L 648.02 334.44
  Q 647.99 335.01 647.42 335.02
  L 645.07 335.04
  Q 644.34 335.05 644.36 334.32
  L 644.51 327.74
  Q 644.52 327.25 645.01 327.25
  L 647.47 327.27
  A 0.74 0.74 0.0 0 1 647.92 328.60
  Q 647.39 329.02 646.69 328.92
  A 0.70 0.70 0.0 0 0 645.88 329.63
  Z"
/>
<path fill="#242633" d="
  M 378.9546 335.1288
  A 3.87 2.86 88.6 0 1 376.0009 331.3299
  A 3.87 2.86 88.6 0 1 378.7654 327.3912
  A 3.87 2.86 88.6 0 1 381.7191 331.1901
  A 3.87 2.86 88.6 0 1 378.9546 335.1288
  Z
  M 378.8082 333.7695
  A 2.51 1.43 88.9 0 0 380.1897 331.2325
  A 2.51 1.43 88.9 0 0 378.7118 328.7505
  A 2.51 1.43 88.9 0 0 377.3303 331.2875
  A 2.51 1.43 88.9 0 0 378.8082 333.7695
  Z"
/>
<path fill="#242633" d="
  M 418.0652 335.1488
  A 3.88 2.87 91.4 0 1 415.2909 331.1999
  A 3.88 2.87 91.4 0 1 418.2548 327.3912
  A 3.88 2.87 91.4 0 1 421.0291 331.3401
  A 3.88 2.87 91.4 0 1 418.0652 335.1488
  Z
  M 418.2734 333.7800
  A 2.55 1.45 89.7 0 0 419.7100 331.2224
  A 2.55 1.45 89.7 0 0 418.2466 328.6800
  A 2.55 1.45 89.7 0 0 416.8100 331.2376
  A 2.55 1.45 89.7 0 0 418.2734 333.7800
  Z"
/>
<path fill="#242633" d="
  M 517.4192 335.1395
  A 3.87 2.84 90.9 0 1 514.6404 331.2254
  A 3.87 2.84 90.9 0 1 517.5408 327.4005
  A 3.87 2.84 90.9 0 1 520.3196 331.3146
  A 3.87 2.84 90.9 0 1 517.4192 335.1395
  Z
  M 517.5850 333.8196
  A 2.58 1.44 89.0 0 0 518.9798 331.2149
  A 2.58 1.44 89.0 0 0 517.4950 328.6604
  A 2.58 1.44 89.0 0 0 516.1002 331.2651
  A 2.58 1.44 89.0 0 0 517.5850 333.8196
  Z"
/>
<path fill="#242633" d="
  M 605.1380 335.2497
  A 3.93 3.15 89.3 0 1 601.9402 331.3585
  A 3.93 3.15 89.3 0 1 605.0420 327.3903
  A 3.93 3.15 89.3 0 1 608.2398 331.2815
  A 3.93 3.15 89.3 0 1 605.1380 335.2497
  Z
  M 605.0003 333.8795
  A 2.59 1.79 91.1 0 0 606.8397 331.3244
  A 2.59 1.79 91.1 0 0 605.0997 328.7005
  A 2.59 1.79 91.1 0 0 603.2603 331.2556
  A 2.59 1.79 91.1 0 0 605.0003 333.8795
  Z"
/>
<ellipse fill="#f0f0f0" cx="0.00" cy="0.00" transform="translate(378.76,331.26) rotate(88.9)" rx="2.51" ry="1.43"/>
<ellipse fill="#f0f0f0" cx="0.00" cy="0.00" transform="translate(418.26,331.23) rotate(89.7)" rx="2.55" ry="1.45"/>
<ellipse fill="#f0f0f0" cx="0.00" cy="0.00" transform="translate(517.54,331.24) rotate(89.0)" rx="2.58" ry="1.44"/>
<ellipse fill="#f0f0f0" cx="0.00" cy="0.00" transform="translate(556.30,331.26) rotate(89.9)" rx="2.58" ry="1.73"/>
<ellipse fill="#f0f0f0" cx="0.00" cy="0.00" transform="translate(605.05,331.29) rotate(91.1)" rx="2.59" ry="1.79"/>
<path fill="#f0f0f0" d="
  M 388.95 329.27
  A 0.56 0.56 0.0 0 1 389.87 329.44
  Q 390.12 330.08 389.72 330.74
  A 0.55 0.54 46.0 0 1 388.78 330.72
  Q 388.33 329.93 388.95 329.27
  Z"
/>
<path fill="#f0f0f0" d="
  M 398.94 329.17
  A 0.19 0.19 0.0 0 1 399.12 328.97
  L 399.22 328.97
  A 1.94 1.71 89.1 0 1 400.96 330.88
  L 400.98 331.74
  A 1.94 1.71 89.1 0 1 399.30 333.71
  L 399.20 333.71
  A 0.19 0.19 0.0 0 1 399.00 333.53
  L 398.94 329.17
  Z"
/>
<path fill="#f0f0f0" d="
  M 500.06 331.01
  Q 499.46 331.93 499.13 330.88
  Q 498.91 330.19 499.05 329.44
  Q 499.18 328.76 499.78 329.10
  Q 500.91 329.75 500.06 331.01
  Z"
/>
<path fill="#f0f0f0" d="
  M 576.26 329.73
  Q 576.73 329.00 577.52 329.49
  A 0.63 0.62 -51.1 0 1 577.62 330.47
  Q 577.24 330.84 576.66 330.71
  A 0.65 0.64 -67.6 0 1 576.26 329.73
  Z"
/>
</svg>
